# Blender 5.2.2 LTS
# www.blender.org
mtllib goodMonkey.mtl
o Suzanne
v 0.313740 -0.016924 0.024705
v -0.305128 -0.017165 0.016070
v 0.357193 0.035836 0.077715
v -0.350085 0.035560 0.067846
v 0.389278 0.067755 0.153873
v -0.384307 0.067454 0.143079
v 0.251545 0.121334 0.121276
v -0.245760 0.121140 0.114337
v 0.252532 0.078701 0.051714
v -0.244772 0.078507 0.044775
v 0.253121 0.004506 0.011589
v -0.244184 0.004312 0.004650
v 0.198011 -0.018203 0.001018
v -0.188782 -0.018354 -0.004379
v 0.147760 0.033595 0.036166
v -0.139572 0.033483 0.032157
v 0.113692 0.064871 0.100365
v -0.107333 0.064785 0.097281
v 0.058461 -0.067880 0.101481
v -0.052051 -0.067923 0.099939
v 0.103514 -0.071256 0.041411
v -0.095408 -0.071333 0.038635
v 0.175887 -0.073387 0.003794
v -0.166701 -0.073521 -0.000986
v 0.197966 -0.134071 0.007496
v -0.188827 -0.134222 0.002099
v 0.147678 -0.176072 0.047888
v -0.139654 -0.176184 0.043879
v 0.113586 -0.205488 0.115481
v -0.107438 -0.205574 0.112397
v 0.251397 -0.259375 0.142561
v -0.245908 -0.259569 0.135622
v 0.252416 -0.219245 0.068372
v -0.244889 -0.219439 0.061433
v 0.253059 -0.155503 0.020534
v -0.244246 -0.155697 0.013595
v 0.313695 -0.132792 0.031183
v -0.305173 -0.133033 0.022548
v 0.357112 -0.173830 0.089437
v -0.350166 -0.174106 0.079568
v 0.389173 -0.202604 0.168989
v -0.384412 -0.202905 0.158195
v 0.444329 -0.064027 0.173082
v -0.439769 -0.064372 0.160746
v 0.401203 -0.068363 0.095227
v -0.394485 -0.068673 0.084125
v 0.335744 -0.071782 0.033615
v -0.327329 -0.072041 0.024363
v 0.341424 -0.072397 0.022658
v -0.332701 -0.072660 0.013252
v 0.319373 -0.138924 0.020534
v -0.310547 -0.139170 0.011745
v 0.253286 -0.167463 0.004600
v -0.244019 -0.167657 -0.002338
v 0.192669 -0.140516 -0.008824
v -0.183072 -0.140663 -0.014067
v 0.165067 -0.074317 -0.012911
v -0.155418 -0.074442 -0.017383
v 0.192719 -0.013613 -0.015919
v -0.183023 -0.013760 -0.021162
v 0.253554 -0.074591 -0.017195
v -0.243751 -0.074785 -0.024134
v 0.253357 0.014615 -0.005579
v -0.243948 0.014421 -0.012518
v 0.319422 -0.012021 0.013439
v -0.310497 -0.012267 0.004650
v 0.004001 -0.203715 0.047426
v 0.004794 -0.151625 -0.010828
v 0.004230 0.580083 0.009140
v 0.004594 0.324425 -0.009772
v 0.004711 0.230010 -0.015562
v 0.004102 0.646910 0.016472
v 0.002620 -0.181610 0.145807
v 0.002267 -0.296244 0.174353
v -0.008849 -0.483868 0.976239
v -0.011763 -0.234584 1.178137
v -0.011396 0.112095 1.142152
v -0.006568 0.413295 0.787724
v 0.146064 0.239321 0.151952
v -0.141268 0.239209 0.147943
v 0.223569 0.415603 0.137643
v -0.218480 0.415431 0.131475
v 0.251268 0.597693 0.127849
v -0.246037 0.597499 0.120910
v 0.261987 0.737178 0.147876
v -0.257420 0.736975 0.140629
v 0.234297 0.776098 0.150848
v -0.229854 0.775917 0.144372
v 0.129626 0.791376 0.126390
v -0.124552 0.791277 0.122844
v 0.002772 0.801436 0.107449
v 0.311511 0.207514 0.178184
v -0.307357 0.207273 0.169549
v 0.449700 0.135531 0.178605
v -0.445448 0.135183 0.166114
v 0.586864 0.006866 0.254139
v -0.584565 0.006410 0.237794
v 0.610354 -0.197617 0.160730
v -0.605280 -0.198091 0.143768
v 0.505660 -0.237515 0.139357
v -0.500000 -0.237907 0.125324
v 0.351528 -0.322806 0.097689
v -0.344699 -0.323077 0.087974
v 0.230384 -0.435055 0.069060
v -0.222716 -0.435231 0.062738
v 0.114588 -0.408438 0.049348
v -0.106436 -0.408524 0.046264
v 0.048266 -0.248147 0.044994
v -0.040144 -0.248181 0.043760
v 0.120352 -0.193869 0.026360
v -0.111724 -0.193959 0.023122
v 0.092677 -0.116326 0.027173
v -0.084142 -0.116395 0.024706
v 0.147760 0.033595 0.036166
v -0.139572 0.033483 0.032157
v 0.268959 0.090360 0.062363
v -0.261499 0.090153 0.054961
v 0.351522 0.058521 0.087438
v -0.344705 0.058249 0.077724
v 0.445192 -0.028798 0.110235
v -0.438906 -0.029142 0.097899
v 0.456213 -0.106039 0.114708
v -0.449987 -0.106392 0.102064
v 0.428718 -0.161842 0.106374
v -0.422226 -0.162174 0.094500
v 0.307677 -0.208189 0.068526
v -0.300140 -0.208426 0.060045
v 0.180964 -0.231851 0.040402
v -0.172675 -0.231989 0.035468
v 0.004254 0.640776 0.005746
v 0.081600 0.607700 0.008677
v -0.073118 0.607640 0.006518
v 0.086926 0.691391 0.020678
v -0.078842 0.691326 0.018365
v 0.048106 0.725098 0.029321
v -0.040304 0.725064 0.028087
v 0.003826 0.730907 0.033913
v 0.004251 0.237379 0.017231
v 0.004159 0.199065 0.024907
v 0.075994 0.204610 0.025601
v -0.067672 0.204554 0.023597
v 0.092669 0.259483 0.017231
v -0.084150 0.259414 0.014764
v 0.064981 0.303921 0.019895
v -0.056582 0.303874 0.018198
v 0.285245 0.135740 0.082194
v -0.278367 0.135521 0.074330
v 0.439471 0.065924 0.121465
v -0.433575 0.065583 0.109283
v 0.516558 -0.037954 0.144957
v -0.511205 -0.038354 0.130616
v 0.528101 -0.161495 0.113278
v -0.521764 -0.161904 0.098629
v 0.490105 -0.191874 0.064628
v -0.482402 -0.192253 0.051059
v 0.313943 -0.288517 0.017752
v -0.304925 -0.288758 0.009117
v 0.225893 -0.356304 -0.007365
v -0.216156 -0.356476 -0.013533
v 0.148695 -0.340399 -0.020404
v -0.138637 -0.340511 -0.024413
v 0.076837 -0.207697 -0.023292
v -0.066829 -0.207753 -0.025297
v 0.093252 0.168735 -0.021969
v -0.083568 0.168666 -0.024437
v 0.153126 0.415540 0.037027
v -0.145257 0.415424 0.032863
v 0.180594 0.598555 0.043783
v -0.173045 0.598417 0.038849
v 0.191446 0.682248 0.055861
v -0.184296 0.682101 0.050619
v 0.169061 0.749683 0.073919
v -0.162476 0.749554 0.069293
v 0.119335 0.760699 0.072608
v -0.112741 0.760609 0.069370
v 0.003378 0.771380 0.064855
v 0.003953 0.067261 0.043345
v 0.004293 -0.050150 0.022238
v 0.236064 -0.236730 0.052515
v -0.228087 -0.236911 0.046039
v 0.120196 0.000170 0.032115
v -0.111880 0.000080 0.028877
v 0.098151 -0.049805 0.029066
v -0.089719 -0.049878 0.026444
v 0.087117 0.585632 0.009988
v -0.078652 0.585568 0.007675
v 0.059576 0.413961 0.008131
v -0.050936 0.413918 0.006589
v 0.004320 0.413940 0.007360
v 0.004210 0.331485 0.017504
v 0.070888 0.291346 -0.006996
v -0.061726 0.291294 -0.008847
v 0.098657 0.257635 -0.015794
v -0.089213 0.257561 -0.018415
v 0.081901 0.192035 -0.001290
v -0.072816 0.191974 -0.003448
v 0.032168 0.186498 -0.001675
v -0.023088 0.186476 -0.002446
v 0.005024 0.239812 -0.038247
v 0.038008 0.201819 -0.024591
v -0.028299 0.201793 -0.025517
v 0.071164 0.207349 -0.024437
v -0.061450 0.207297 -0.026288
v 0.082389 0.256394 -0.038093
v -0.072328 0.256334 -0.040252
v 0.060062 0.273864 -0.022776
v -0.050450 0.273821 -0.024318
v 0.004816 0.301430 -0.025090
v 0.184701 0.327925 0.153073
v -0.179989 0.327783 0.147985
v 0.119916 0.272072 0.044584
v -0.112159 0.271981 0.041346
v 0.130987 0.321734 0.041962
v -0.123191 0.321635 0.038416
v 0.168107 0.283778 0.155310
v -0.163430 0.283649 0.150684
v 0.003821 0.719872 0.034530
v 0.036973 0.714367 0.035301
v -0.029334 0.714341 0.034376
v 0.070345 0.680349 0.021063
v -0.062270 0.680298 0.019213
v 0.070478 0.624557 0.013114
v -0.062137 0.624506 0.011264
v 0.003487 0.654895 0.060299
v 0.069863 0.632543 0.056941
v -0.062752 0.632491 0.055091
v 0.069649 0.677608 0.071025
v -0.062966 0.677557 0.069174
v 0.036429 0.705492 0.074537
v -0.029878 0.705466 0.073611
v 0.003277 0.710996 0.073766
v 0.126009 -0.056237 0.013209
v -0.117118 -0.056332 0.009816
v 0.137000 -0.011784 0.016412
v -0.128229 -0.011887 0.012711
v 0.241757 -0.204240 0.039708
v -0.233445 -0.204425 0.033077
v 0.197708 -0.199356 0.027748
v -0.189084 -0.199507 0.022351
v 0.302701 -0.182763 0.028288
v -0.294064 -0.182995 0.019961
v 0.401404 -0.146534 0.082995
v -0.394283 -0.146844 0.071892
v 0.417921 -0.102079 0.086275
v -0.410920 -0.102402 0.074710
v 0.412344 -0.035562 0.088013
v -0.405446 -0.035881 0.076603
v 0.340923 0.029078 0.055724
v -0.333201 0.028815 0.046318
v 0.269332 0.055712 0.036629
v -0.261126 0.055505 0.029227
v 0.164718 0.021024 0.009430
v -0.155767 0.020899 0.004958
v 0.131513 -0.111410 0.016370
v -0.122665 -0.111509 0.012824
v 0.153594 -0.166577 0.019764
v -0.144789 -0.166693 0.015600
v 0.169943 -0.154610 0.035929
v -0.161593 -0.154739 0.031303
v 0.142333 -0.110480 0.033076
v -0.133948 -0.110588 0.029221
v 0.175534 0.010918 0.026752
v -0.167054 0.010785 0.021972
v 0.269171 0.039777 0.048588
v -0.261287 0.039570 0.041187
v 0.329713 0.018656 0.067221
v -0.322309 0.018401 0.058123
v 0.390161 -0.046297 0.093839
v -0.383425 -0.046599 0.083045
v 0.395667 -0.095953 0.096692
v -0.388970 -0.096259 0.085744
v 0.379152 -0.134891 0.093103
v -0.372331 -0.135183 0.082618
v 0.296947 -0.176322 0.044453
v -0.288768 -0.176550 0.036281
v 0.203163 -0.182493 0.032417
v -0.194681 -0.182648 0.026866
v 0.241686 -0.187378 0.044299
v -0.233516 -0.187564 0.037669
v 0.147815 -0.021889 0.033734
v -0.139516 -0.022001 0.029725
v 0.142275 -0.060514 0.035816
v -0.134006 -0.060622 0.031961
v 0.080041 -0.220511 0.143528
v -0.074676 -0.220571 0.141370
v 0.140844 -0.364252 0.146880
v -0.135437 -0.364359 0.143025
v 0.240067 -0.379840 0.165744
v -0.235136 -0.380025 0.159114
v 0.344704 -0.284459 0.189550
v -0.340471 -0.284726 0.179990
v 0.482256 -0.210209 0.231603
v -0.479200 -0.210584 0.218188
v 0.564844 -0.175838 0.252977
v -0.562380 -0.176277 0.237248
v 0.547486 -0.001408 0.303870
v -0.546584 -0.001834 0.288604
v 0.426354 0.112871 0.268110
v -0.424590 0.112539 0.256237
v 0.310881 0.176877 0.224171
v -0.307987 0.176635 0.215535
v -0.000600 -0.516875 0.385920
v -0.004247 -0.563070 0.648612
v -0.009781 0.293521 1.021324
v -0.001227 0.447185 0.403966
v 0.001614 0.800546 0.190512
v 0.000410 0.683787 0.280054
v 0.000114 0.519186 0.305859
v -0.000295 0.460036 0.336837
v 0.599562 -0.038396 0.533614
v -0.605021 -0.038866 0.516806
v 0.604061 -0.095077 0.608805
v -0.611572 -0.095551 0.591843
v 0.539440 -0.041054 0.881647
v -0.554631 -0.041480 0.866381
v 0.315747 -0.152038 1.072927
v -0.336275 -0.152292 1.063829
v 0.516910 0.159586 0.510318
v -0.521905 0.159181 0.495823
v 0.415157 0.223976 0.671355
v -0.424735 0.223649 0.659636
v 0.445657 0.151715 0.864023
v -0.460543 0.151361 0.851378
v 0.227828 0.116745 1.028993
v -0.247374 0.116559 1.022363
v 0.166670 0.361367 0.256122
v -0.164867 0.361238 0.251496
v 0.126543 0.411353 0.357938
v -0.127635 0.411254 0.354391
v 0.205217 0.616114 0.259023
v -0.203678 0.615955 0.253318
v 0.177608 0.466821 0.261449
v -0.176031 0.466684 0.256515
v 0.233055 0.758964 0.240354
v -0.231096 0.758783 0.233878
v 0.100089 0.649795 0.266741
v -0.098833 0.649718 0.263966
v 0.088900 0.495608 0.280741
v -0.087919 0.495539 0.278274
v 0.117411 0.779446 0.209916
v -0.114664 0.779356 0.206678
v 0.155831 0.310779 0.242193
v -0.153604 0.310659 0.237876
v 0.150675 0.270612 0.216691
v -0.147708 0.270496 0.212527
v 0.145443 0.230753 0.196705
v -0.141889 0.230641 0.192696
v 0.147714 0.398511 0.425375
v -0.150669 0.398395 0.421212
v 0.204233 0.360325 0.732743
v -0.215713 0.360162 0.726883
v 0.234643 0.255267 0.932778
v -0.251610 0.255077 0.925993
v 0.313264 -0.468151 0.863620
v -0.327707 -0.468401 0.854676
v 0.316331 -0.524631 0.645408
v -0.324640 -0.524880 0.636464
v 0.319359 -0.481486 0.427160
v -0.321612 -0.481736 0.418217
v 0.326903 -0.257459 0.276357
v -0.325119 -0.257713 0.267259
v 0.513880 -0.170922 0.340555
v -0.513883 -0.171322 0.326214
v 0.447021 -0.201893 0.380099
v -0.448128 -0.202242 0.367609
v 0.450241 -0.369506 0.550040
v -0.455959 -0.369859 0.537396
v 0.561486 -0.272924 0.496377
v -0.565738 -0.273363 0.480649
v 0.559081 -0.301984 0.669563
v -0.568143 -0.302423 0.653835
v 0.447761 -0.392740 0.728435
v -0.458439 -0.393093 0.715791
v 0.445313 -0.333211 0.902202
v -0.460886 -0.333564 0.889558
v 0.556712 -0.237246 0.837505
v -0.570512 -0.237685 0.821777
v 0.427446 -0.079376 0.987396
v -0.445601 -0.079716 0.975214
v 0.333980 0.134229 0.946469
v -0.351196 0.133961 0.936909
v 0.574889 -0.094435 0.719068
v -0.585489 -0.094888 0.702877
v 0.285639 0.244691 0.446974
v -0.289024 0.244467 0.438956
v 0.298676 0.275440 0.700062
v -0.309141 0.275203 0.691581
v 0.624290 -0.148358 0.744914
v -0.635549 -0.148849 0.727336
v 0.542636 0.233519 0.644927
v -0.551435 0.233092 0.629661
v 0.728491 0.214025 0.792532
v -0.741321 0.213452 0.772024
v 0.898740 0.107751 0.872813
v -0.913660 0.107045 0.847524
v 0.948474 -0.080134 0.878478
v -0.963387 -0.080879 0.851801
v 0.865538 -0.212587 0.884725
v -0.880554 -0.213268 0.860361
v 0.717435 -0.194894 0.804171
v -0.730275 -0.195458 0.783971
v 0.712158 -0.151681 0.785075
v -0.724501 -0.152241 0.765029
v 0.832712 -0.164176 0.859418
v -0.847073 -0.164831 0.835979
v 0.887855 -0.058705 0.865362
v -0.902442 -0.059402 0.840381
v 0.849234 0.090254 0.856493
v -0.863705 0.089586 0.832592
v 0.723180 0.168957 0.778372
v -0.735581 0.168388 0.758017
v 0.581219 0.184184 0.653759
v -0.590210 0.183728 0.637414
v 0.646559 -0.115861 0.732338
v -0.657484 -0.116369 0.714142
v 0.662457 -0.074455 0.780063
v -0.674740 -0.074976 0.761405
v 0.619114 0.154179 0.711320
v -0.629674 0.153692 0.693895
v 0.728078 0.143839 0.824127
v -0.741734 0.143266 0.803619
v 0.832268 0.080754 0.884464
v -0.847518 0.080100 0.861025
v 0.865378 -0.029583 0.891096
v -0.880714 -0.030264 0.866732
v 0.821220 -0.107154 0.889281
v -0.836463 -0.107800 0.866151
v 0.717009 -0.099245 0.832029
v -0.730701 -0.099809 0.811829
v 0.591400 -0.066533 0.723274
v -0.602132 -0.066998 0.706620
v 0.585290 0.018696 0.762705
v -0.597190 0.018235 0.746206
v 0.530055 0.073849 0.758849
v -0.541913 0.073432 0.743892
v 0.574262 0.079384 0.759158
v -0.586116 0.078932 0.742967
v 0.590858 0.129048 0.756613
v -0.602673 0.128583 0.739959
v 0.568765 0.151110 0.755070
v -0.580562 0.150662 0.739034
v 0.509983 0.132031 0.611398
v -0.517780 0.131630 0.597057
v 0.503462 0.152591 0.682116
v -0.513250 0.152195 0.667930
v 0.503290 0.109068 0.695618
v -0.513422 0.108672 0.681431
v 0.558270 -0.005853 0.719418
v -0.568954 -0.006292 0.703689
v 0.624027 -0.031255 0.760504
v -0.635812 -0.031746 0.742925
v 0.623489 -0.023579 0.798815
v -0.636350 -0.024070 0.781236
v 0.568302 0.152961 0.788172
v -0.581025 0.152513 0.772136
v 0.595921 0.130901 0.789792
v -0.608661 0.130432 0.772984
v 0.579328 0.086755 0.792028
v -0.592102 0.086298 0.775683
v 0.535118 0.075702 0.792028
v -0.547901 0.075280 0.776917
v 0.590353 0.020549 0.795884
v -0.603179 0.020084 0.779231
v 0.727525 -0.086046 0.870185
v -0.742287 -0.086619 0.849677
v 0.831813 -0.094264 0.921920
v -0.847972 -0.094919 0.898482
v 0.881495 -0.022208 0.924121
v -0.897752 -0.022902 0.899294
v 0.848461 0.087821 0.911972
v -0.864478 0.087153 0.888071
v 0.733064 0.146001 0.862823
v -0.747799 0.145423 0.842161
v 0.618572 0.150821 0.750247
v -0.630215 0.150334 0.732823
v 0.667448 -0.061259 0.818142
v -0.680801 -0.061784 0.799329
v 0.623447 0.065010 0.799396
v -0.636392 0.064519 0.781817
v 0.656536 0.098437 0.803525
v -0.669610 0.097920 0.785021
v 0.700415 0.055548 0.828677
v -0.714141 0.054996 0.808940
v 0.672929 0.021815 0.819109
v -0.686371 0.021285 0.800142
v 0.711359 -0.021385 0.838667
v -0.725299 -0.021945 0.818621
v 0.738923 0.012040 0.842719
v -0.752991 0.011458 0.821902
v 0.777519 -0.004189 0.849701
v -0.791754 -0.004801 0.827805
v 0.760925 -0.048336 0.851937
v -0.775195 -0.048935 0.830504
v 0.715749 -0.160520 0.924003
v -0.731960 -0.161084 0.903803
v 0.875367 -0.180060 0.971608
v -0.892828 -0.180749 0.946936
v 0.958761 -0.060492 0.932876
v -0.975202 -0.061246 0.905891
v 0.919840 0.111770 0.944842
v -0.936765 0.111046 0.918936
v 0.726868 0.209468 0.909006
v -0.742944 0.208895 0.888497
v 0.551678 0.230508 0.789139
v -0.564495 0.230073 0.773565
v 0.600729 -0.125952 0.848503
v -0.614905 -0.126426 0.831541
vn 0.6718 0.1623 -0.7227
vn -0.6515 0.1618 -0.7412
vn 0.8335 0.2786 -0.4772
vn -0.8200 0.2780 -0.5003
vn 0.4143 0.7640 -0.4947
vn -0.4009 0.7636 -0.5061
vn 0.3899 0.4728 -0.7902
vn -0.3681 0.4725 -0.8008
vn -0.0738 0.4739 -0.8775
vn 0.0979 0.4740 -0.8751
vn -0.2596 0.8217 -0.5073
vn 0.2730 0.8219 -0.4999
vn -0.7748 0.2991 -0.5569
vn 0.7683 0.3088 -0.5606
vn -0.4646 0.1423 -0.8740
vn 0.4770 0.1474 -0.8664
vn -0.4529 -0.2438 -0.8576
vn 0.4769 -0.2435 -0.8446
vn -0.7579 -0.3532 -0.5485
vn 0.7758 -0.3591 -0.5188
vn -0.2489 -0.8359 -0.4893
vn 0.2555 -0.8518 -0.4573
vn -0.0713 -0.6458 -0.7602
vn 0.1130 -0.5971 -0.7941
vn 0.3436 -0.5659 -0.7495
vn -0.3758 -0.5855 -0.7183
vn 0.4308 -0.7962 -0.4248
vn -0.3992 -0.7910 -0.4636
vn 0.8316 -0.3228 -0.4519
vn -0.8233 -0.3203 -0.4686
vn 0.6984 -0.2253 -0.6793
vn -0.6517 -0.2429 -0.7186
vn 0.8339 -0.3193 0.4502
vn -0.7892 -0.2753 0.5490
vn 0.1998 -0.7992 0.5668
vn -0.2115 -0.7831 0.5848
vn -0.4129 -0.7312 0.5430
vn 0.4320 -0.7744 0.4623
vn -0.8698 -0.2922 0.3977
vn 0.7786 -0.2975 0.5525
vn -0.7853 0.3819 0.4874
vn 0.7711 0.3825 0.5091
vn -0.4435 0.8204 0.3609
vn 0.4326 0.8208 0.3731
vn 0.1964 0.8437 0.4995
vn -0.2109 0.8436 0.4939
vn 0.7607 0.3597 0.5403
vn -0.7758 0.3591 0.5188
vn 0.4128 0.0114 -0.9108
vn -0.3872 0.0110 -0.9219
vn 0.3200 0.1230 -0.9394
vn -0.2938 0.1228 -0.9480
vn 0.1082 0.1286 -0.9858
vn -0.0808 0.1285 -0.9884
vn -0.0484 -0.0274 -0.9985
vn 0.0763 -0.0274 -0.9967
vn -0.0484 -0.0817 -0.9955
vn 0.0763 -0.0816 -0.9937
vn 0.1132 -0.2273 -0.9672
vn -0.0859 -0.2274 -0.9700
vn 0.3166 -0.2176 -0.9233
vn -0.2905 -0.2178 -0.9317
vn 0.4129 -0.1080 -0.9044
vn -0.3874 -0.1083 -0.9155
vn 0.1435 0.8476 -0.5109
vn -0.0977 0.8125 -0.5747
vn 0.2368 0.8395 -0.4891
vn -0.1847 0.8344 -0.5193
vn 0.5879 0.4686 -0.6594
vn -0.5696 0.4681 -0.6756
vn 0.7850 0.0285 -0.6188
vn -0.7675 0.0279 -0.6405
vn 0.7561 -0.1493 -0.6372
vn -0.7379 -0.1499 -0.6580
vn 0.3806 0.8108 -0.4446
vn -0.3687 0.8105 -0.4551
vn 0.3641 0.6954 -0.6196
vn -0.4077 0.5348 -0.7401
vn 0.7030 0.3867 -0.5969
vn -0.6864 0.3861 -0.6163
vn 0.7112 0.3580 -0.6050
vn -0.5427 0.2537 -0.8007
vn 0.3249 -0.3913 -0.8610
vn -0.8166 -0.3849 -0.4301
vn 0.5167 -0.6786 -0.5220
vn -0.4963 -0.6761 -0.5446
vn 0.6055 -0.5876 -0.5367
vn -0.5898 -0.5881 -0.5534
vn -0.0383 -0.6970 -0.7160
vn 0.0472 -0.7089 -0.7037
vn -0.7013 -0.3076 -0.6430
vn 0.7462 -0.4071 -0.5267
vn -0.5931 -0.5591 -0.5793
vn 0.5851 -0.6085 -0.5361
vn 0.5155 0.5944 -0.6173
vn -0.5254 0.2788 -0.8039
vn 0.2347 0.4210 -0.8762
vn -0.2105 0.4208 -0.8824
vn -0.0232 0.5329 -0.8459
vn 0.1195 0.4523 -0.8838
vn -0.0810 0.7488 -0.6578
vn 0.0886 0.5296 -0.8436
vn 0.0685 0.1143 -0.9911
vn -0.0205 0.8351 -0.5498
vn 0.4386 0.0105 -0.8986
vn -0.1555 0.2600 -0.9530
vn 0.3481 0.1311 -0.9282
vn -0.4225 0.1315 -0.8967
vn 0.3703 0.2572 -0.8926
vn -0.3095 0.2251 -0.9239
vn 0.0127 0.3966 -0.9179
vn -0.1473 -0.4404 -0.8856
vn 0.1723 -0.4403 -0.8812
vn 0.6913 0.2538 -0.6765
vn -0.1733 0.4474 -0.8774
vn 0.0725 0.0224 -0.9971
vn -0.0446 0.0224 -0.9988
vn 0.0070 0.1769 -0.9842
vn -0.0446 0.0288 -0.9986
vn 0.1108 0.6704 -0.7337
vn -0.0908 0.6703 -0.7365
vn 0.1434 0.5496 -0.8230
vn -0.1209 0.5495 -0.8267
vn 0.3259 0.1138 -0.9385
vn -0.3020 0.3439 -0.8891
vn 0.3420 -0.0166 -0.9396
vn -0.3156 -0.0169 -0.9487
vn 0.3364 0.0282 -0.9413
vn -0.3100 0.0279 -0.9503
vn -0.0093 -0.1067 -0.9942
vn 0.0139 -0.1221 -0.9924
vn 0.0096 0.0093 -0.9999
vn 0.0139 0.0107 -0.9998
vn 0.0140 -0.0558 -0.9983
vn 0.8454 0.5305 -0.0624
vn -0.8437 0.5298 -0.0859
vn 0.9215 -0.2326 0.3112
vn -0.9657 -0.2052 0.1588
vn 0.0629 -0.8750 0.4800
vn -0.1076 -0.8935 0.4360
vn -0.9999 -0.0004 -0.0140
vn 0.6967 -0.5744 -0.4297
vn 0.4099 0.8844 -0.2231
vn -0.4279 0.8479 -0.3130
vn 0.2982 0.5311 -0.7931
vn -0.2764 0.5309 -0.8011
vn -0.6250 -0.5660 -0.5377
vn 0.6402 -0.5655 -0.5200
vn 0.0946 -0.8095 -0.5794
vn -0.0778 -0.8096 -0.5819
vn 0.7613 -0.3192 -0.5643
vn -0.7559 -0.3289 -0.5660
vn 0.3525 0.4973 -0.7928
vn -0.3306 0.4970 -0.8023
vn 0.0637 -0.2882 -0.9555
vn -0.0239 -0.2787 -0.9601
vn -0.1193 0.5640 -0.8171
vn 0.1416 0.5641 -0.8135
vn -0.4939 -0.1197 -0.8612
vn 0.5178 -0.1193 -0.8471
vn -0.5690 0.5440 -0.6167
vn 0.5856 0.5444 -0.6006
vn 0.5561 0.3905 -0.7337
vn -0.3188 -0.1263 -0.9394
vn 0.3362 -0.0838 -0.9380
vn -0.2682 -0.1197 -0.9559
vn 0.7432 -0.4210 -0.5201
vn -0.8691 -0.2304 -0.4376
vn 0.8537 -0.3408 -0.3937
vn -0.8918 -0.2214 -0.3946
vn 0.8554 -0.3992 -0.3301
vn -0.8455 -0.3998 -0.3538
vn 0.1909 0.3658 -0.9109
vn -0.2460 0.8399 -0.4839
vn -0.1160 0.1398 -0.9834
vn 0.1433 0.1399 -0.9797
vn -0.4347 -0.0501 -0.8992
vn 0.4597 -0.0498 -0.8867
vn -0.1548 -0.9631 -0.2200
vn 0.1616 -0.9630 -0.2156
vn -0.6436 -0.7445 -0.1773
vn 0.6489 -0.7440 -0.1593
vn 0.9999 0.0004 0.0140
vn 0.3071 0.9370 -0.1664
vn -0.3031 0.9368 -0.1749
vn 0.0351 0.2495 -0.9677
vn -0.0082 0.2495 -0.9683
vn 0.1484 0.2956 -0.9437
vn -0.1222 0.2955 -0.9475
vn -0.4561 0.1756 -0.8724
vn 0.4801 0.1760 -0.8594
vn -0.2576 -0.0809 -0.9629
vn 0.2844 -0.0807 -0.9553
vn -0.1580 -0.0460 -0.9864
vn 0.2728 -0.1571 -0.9491
vn -0.4224 0.4441 -0.7901
vn 0.6767 0.4264 -0.6002
vn -0.1533 0.8533 -0.4984
vn 0.1665 0.8534 -0.4940
vn 0.4000 0.5492 -0.7337
vn -0.3798 0.5489 -0.7446
vn 0.6632 0.4249 -0.6162
vn -0.6460 0.4244 -0.6344
vn 0.5494 0.0678 -0.8328
vn -0.5260 0.0674 -0.8478
vn 0.5770 -0.1648 -0.8000
vn -0.5661 -0.1606 -0.8086
vn 0.4194 -0.4530 -0.7867
vn -0.5140 -0.6869 -0.5137
vn 0.1875 -0.8197 -0.5412
vn -0.1717 -0.8199 -0.5462
vn 0.2009 -0.3895 -0.8989
vn -0.1754 -0.3897 -0.9041
vn -0.0738 -0.3286 -0.9416
vn 0.1003 -0.3286 -0.9391
vn 0.0963 0.2365 -0.9668
vn -0.0695 0.2365 -0.9692
vn 0.3142 0.2507 -0.9157
vn -0.2887 0.2504 -0.9241
vn -0.3706 0.8099 -0.4546
vn 0.0764 0.2623 -0.9620
vn 0.0913 0.7466 -0.6590
vn 0.2071 0.8851 -0.4168
vn -0.3582 0.2352 -0.9035
vn 0.3831 0.2355 -0.8932
vn -0.2557 0.0038 -0.9667
vn 0.4691 -0.1001 -0.8775
vn -0.2687 -0.5686 -0.7775
vn 0.2907 -0.5684 -0.7697
vn -0.0099 -0.6002 -0.7998
vn 0.0586 -0.7212 -0.6903
vn 0.3869 -0.6707 -0.6328
vn -0.3271 -0.5651 -0.7574
vn 0.5081 -0.5672 -0.6482
vn -0.4894 -0.5676 -0.6621
vn 0.5533 0.2959 -0.7787
vn -0.5316 0.2954 -0.7938
vn 0.8381 0.0308 -0.5446
vn -0.8226 0.0302 -0.5678
vn 0.7899 -0.1454 -0.5958
vn -0.7728 -0.1460 -0.6176
vn -0.4362 -0.8793 0.1914
vn 0.4313 -0.8789 0.2035
vn -0.8567 -0.3536 0.3755
vn 0.8462 -0.3530 0.3992
vn -0.2724 -0.8467 0.4569
vn 0.2130 -0.8357 0.5062
vn 0.5886 -0.7260 0.3556
vn -0.5958 -0.7313 0.3322
vn 0.3665 -0.8486 0.3815
vn -0.3697 -0.8657 0.3375
vn 0.2857 -0.8967 0.3379
vn -0.2944 -0.8970 0.3298
vn 0.8810 -0.1091 0.4604
vn -0.8047 -0.0995 0.5854
vn 0.5034 0.6945 0.5141
vn -0.5181 0.6941 0.4999
vn 0.3648 0.8755 0.3168
vn -0.3741 0.8753 0.3065
vn 0.3500 0.4327 0.8308
vn -0.1748 0.7040 0.6883
vn 0.1816 0.1520 0.9716
vn -0.3144 0.0656 0.9470
vn -0.0220 0.6085 0.7932
vn -0.2689 0.3617 0.8927
vn 0.1507 0.9753 0.1613
vn -0.1559 0.9752 0.1571
vn 0.1230 0.9744 0.1882
vn -0.1290 0.9743 0.1847
vn 0.9352 -0.1397 0.3255
vn -0.9438 -0.1404 0.2993
vn 0.9231 -0.1651 0.3473
vn -0.9323 -0.1658 0.3214
vn 0.2056 -0.0221 0.9784
vn -0.2328 -0.0223 0.9723
vn 0.1072 0.1083 0.9883
vn 0.1370 0.4143 0.8998
vn 0.9038 -0.1146 0.4124
vn -0.3791 0.7122 0.5908
vn 0.9149 -0.1145 0.3870
vn -0.9253 -0.1152 0.3613
vn 0.9143 -0.3319 0.2323
vn -0.9483 -0.2569 0.1864
vn 0.8969 -0.3500 0.2705
vn -0.9368 -0.2689 0.2238
vn 0.8958 -0.4387 -0.0716
vn -0.9528 -0.2348 0.1923
vn 0.1566 0.9696 0.1878
vn -0.1914 0.8180 0.5424
vn 0.3582 0.5153 0.7785
vn -0.3836 0.5195 0.7635
vn 0.2922 0.8494 0.4395
vn -0.3321 0.8576 0.3927
vn 0.2980 0.9505 0.0881
vn -0.3010 0.9503 0.0797
vn 0.3258 0.9277 0.1821
vn -0.3315 0.9275 0.1730
vn 0.8240 -0.3076 0.4758
vn -0.8616 0.4632 -0.2079
vn 0.9186 0.3659 -0.1493
vn -0.9144 0.3652 -0.1749
vn 0.2817 0.0988 0.9544
vn -0.4310 0.2751 0.8594
vn 0.1300 -0.9768 -0.1700
vn -0.1088 -0.9749 -0.1942
vn 0.1291 -0.9635 0.2347
vn -0.1348 -0.9636 0.2310
vn 0.3780 -0.5800 0.7216
vn -0.3975 -0.5803 0.7108
vn 0.4932 -0.8542 0.1649
vn -0.4969 -0.8545 0.1510
vn 0.2659 -0.6838 -0.6795
vn -0.2463 -0.6840 -0.6866
vn 0.5982 -0.7956 -0.0953
vn -0.5947 -0.7961 -0.1120
vn 0.7095 -0.6636 0.2373
vn -0.7153 -0.6641 0.2174
vn 0.7007 -0.0973 0.7068
vn -0.6407 -0.2106 0.7384
vn 0.6725 -0.1925 0.7147
vn -0.6920 -0.1931 0.6956
vn 0.6542 -0.7126 0.2533
vn -0.6605 -0.7131 0.2350
vn 0.7304 -0.6786 -0.0782
vn -0.7274 -0.6791 -0.0986
vn 0.7855 -0.4331 -0.4420
vn -0.7726 -0.4337 -0.4638
vn 0.3625 -0.8663 0.3438
vn -0.3251 -0.9380 0.1200
vn 0.2953 -0.6633 -0.6877
vn -0.1432 -0.5546 -0.8197
vn -0.1839 -0.0549 0.9814
vn 0.1645 -0.0342 0.9858
vn 0.3030 -0.6094 -0.7327
vn -0.2820 -0.6096 -0.7408
vn -0.1481 -0.2385 -0.9598
vn 0.1750 -0.2384 -0.9553
vn 0.8612 -0.0615 0.5046
vn -0.9301 -0.2410 -0.2773
vn 0.9326 -0.0962 -0.3479
vn -0.9225 -0.0969 -0.3738
vn 0.9755 -0.2189 -0.0232
vn -0.9743 -0.2196 -0.0504
vn 0.9789 0.0412 0.1999
vn -0.9959 -0.0879 0.0198
vn 0.7472 0.6623 -0.0551
vn -0.6358 0.7585 -0.1429
vn 0.3738 0.9182 -0.1310
vn -0.3704 0.9181 -0.1412
vn 0.4027 0.8590 -0.3162
vn -0.3944 0.8587 -0.3274
vn 0.6348 0.7563 -0.1583
vn -0.6307 0.7558 -0.1759
vn 0.7360 0.6227 -0.2656
vn -0.7288 0.6221 -0.2860
vn 0.2758 0.4017 -0.8733
vn -0.2516 0.4015 -0.8806
vn 0.5777 0.3485 0.7381
vn -0.5344 0.3721 0.7589
vn 0.4575 0.2872 0.8415
vn -0.5502 0.3767 0.7452
vn 0.4424 0.8605 0.2527
vn -0.2211 0.8611 0.4579
vn 0.6937 0.6757 0.2494
vn -0.7401 0.6298 0.2357
vn 0.4869 0.4820 0.7284
vn -0.5074 0.4816 0.7146
vn 0.3813 -0.3343 -0.8619
vn -0.3133 -0.5313 -0.7871
vn 0.4590 -0.1468 -0.8762
vn -0.4343 -0.1471 -0.8887
vn 0.3317 -0.2506 -0.9095
vn -0.1679 -0.0471 -0.9847
vn 0.2212 0.0292 -0.9748
vn -0.2791 0.0224 -0.9600
vn 0.3528 -0.1344 -0.9260
vn -0.5737 0.1756 -0.8000
vn 0.6056 0.3453 -0.7170
vn -0.5856 0.3448 -0.7336
vn 0.4935 -0.5946 -0.6348
vn -0.4751 -0.5949 -0.6483
vn -0.2610 -0.8577 -0.4429
vn 0.2740 -0.8575 -0.4354
vn -0.8511 -0.2482 -0.4625
vn 0.7963 -0.2676 -0.5426
vn -0.5147 0.3141 -0.7978
vn 0.5351 0.3113 -0.7854
vn 0.4756 0.5620 -0.6767
vn -0.4286 0.4835 -0.7632
vn 0.7179 0.4263 -0.5503
vn -0.7026 0.4258 -0.5701
vn 0.7474 0.6262 0.2219
vn -0.6281 0.7572 -0.1796
vn -0.1658 -0.3444 -0.9241
vn 0.2305 -0.3251 -0.9172
vn 0.9010 0.3707 0.2255
vn -0.9072 0.3699 0.2003
vn 0.0530 -0.3918 -0.9185
vn -0.0270 -0.3918 -0.9197
vn 0.2775 -0.9228 -0.2672
vn -0.2692 -0.9230 -0.2748
vn 0.4589 0.4042 -0.7912
vn -0.7083 -0.2066 -0.6750
vn 0.5622 0.5180 -0.6447
vn -0.8984 0.3981 -0.1852
vn 0.5830 0.2696 -0.7664
vn -0.5725 0.4858 -0.6605
vn 0.5684 0.5182 -0.6390
vn -0.6032 0.2148 -0.7681
vn 0.9516 0.1776 0.2507
vn -0.1575 0.0384 -0.9868
vn 0.9216 0.3809 0.0743
vn -0.8743 0.4550 0.1690
vn 0.9961 0.0225 0.0853
vn -0.9981 0.0218 0.0575
vn 0.6937 0.6476 -0.3153
vn -0.6851 0.6470 -0.3346
vn 0.7829 0.6121 -0.1117
vn -0.7908 0.5861 -0.1762
vn 0.7041 0.6949 -0.1462
vn -0.7003 0.6943 -0.1658
vn 0.1239 -0.9916 0.0365
vn -0.2428 -0.9550 0.1706
vn 0.9447 -0.3195 -0.0739
vn -0.9230 -0.3554 -0.1475
vn 0.6230 0.7699 -0.1381
vn -0.6195 0.7694 -0.1554
vn -0.0004 -0.9984 0.0558
vn 0.6252 0.6682 -0.4034
vn -0.6142 0.6677 -0.4207
vn 0.2809 0.8580 -0.4300
vn -0.2695 0.8578 -0.4377
vn -0.7970 0.5413 0.2680
vn 0.7887 0.5419 0.2902
vn -0.8171 -0.2130 0.5357
vn 0.8471 -0.2062 0.4898
vn -0.5635 -0.8176 0.1183
vn 0.5365 -0.6712 0.5115
vn -0.0055 -0.9963 -0.0860
vn 0.1089 -0.9914 0.0726
vn 0.1184 -0.0946 -0.9884
vn -0.1600 -0.0647 -0.9850
vn 0.2595 -0.1389 -0.9557
vn -0.4007 -0.0922 -0.9115
vn 0.3141 -0.1453 -0.9382
vn -0.2877 -0.1456 -0.9466
vn 0.2240 -0.0668 -0.9723
vn -0.1082 -0.1011 -0.9890
vn 0.0028 -0.4376 -0.8992
vn 0.0226 -0.4376 -0.8989
vn 0.3915 -0.0151 -0.9200
vn -0.4117 -0.0187 -0.9111
vn 0.2663 0.1366 -0.9542
vn -0.2435 -0.1261 -0.9617
vn -0.4785 -0.6430 -0.5980
vn 0.3061 -0.7774 -0.5495
vn 0.6792 -0.2199 -0.7002
vn -0.6593 -0.2204 -0.7189
vn 0.4511 0.1517 -0.8795
vn -0.4602 0.1502 -0.8750
vn 0.5898 0.0885 -0.8027
vn -0.2853 0.3573 -0.8894
vn 0.5115 -0.3284 -0.7941
vn -0.4888 -0.3288 -0.8080
vn 0.3083 -0.6215 -0.7202
vn -0.2876 -0.6218 -0.7285
vn 0.0920 0.9949 0.0402
vn -0.0938 0.9949 0.0376
vn 0.4711 0.8622 -0.1861
vn -0.4664 0.8619 -0.1992
vn 0.9346 0.2394 -0.2632
vn -0.9223 0.2293 -0.3112
vn 0.8454 -0.5246 0.1008
vn -0.8269 -0.5619 0.0233
vn -0.2544 -0.9305 0.2634
vn 0.2098 -0.9051 0.3697
vn -0.4849 -0.8711 0.0781
vn 0.4164 -0.8724 0.2561
vn -0.5374 0.0503 0.8418
vn 0.5353 0.0613 0.8424
vn -0.1604 0.0448 0.9860
vn 0.1328 0.0449 0.9901
vn 0.3918 0.0246 0.9197
vn -0.4173 0.0243 0.9084
vn -0.8074 -0.5897 0.0176
vn 0.7333 -0.6799 0.0010
vn 0.4078 0.2779 0.8698
vn -0.4321 0.2776 0.8580
vn -0.0694 0.9973 0.0252
vn 0.0679 0.9973 0.0271
vn 0.6813 0.1572 -0.7149
vn -0.6612 0.1566 -0.7336
vn 0.8391 0.2756 -0.4690
vn -0.8259 0.2749 -0.4922
vn 0.4320 0.7717 -0.4668
vn -0.4194 0.7713 -0.4787
vn 0.3379 0.4498 -0.8267
vn -0.3150 0.4495 -0.8359
vn -0.0533 0.5248 -0.8496
vn 0.0766 0.5248 -0.8477
vn -0.2667 0.8031 -0.5328
vn 0.2808 0.8033 -0.5252
vn -0.7526 0.3082 -0.5818
vn 0.7898 0.2997 -0.5351
vn -0.4528 0.1471 -0.8794
vn 0.4887 0.1427 -0.8607
vn -0.4865 -0.2285 -0.8433
vn 0.5101 -0.2281 -0.8294
vn -0.7607 -0.3597 -0.5403
vn 0.7731 -0.3526 -0.5272
vn -0.2420 -0.8520 -0.4642
vn 0.2631 -0.8357 -0.4821
vn -0.0903 -0.5972 -0.7970
vn 0.0930 -0.6457 -0.7579
vn 0.3962 -0.5852 -0.7075
vn -0.3221 -0.5662 -0.7587
vn 0.4126 -0.7907 -0.4523
vn -0.4182 -0.7965 -0.4366
vn 0.8363 -0.3197 -0.4454
vn -0.8184 -0.3235 -0.4749
vn 0.6716 -0.2423 -0.7001
vn -0.6790 -0.2259 -0.6985
vn 0.7738 -0.2747 0.5708
vn -0.8459 -0.3200 0.4268
vn 0.1957 -0.7829 0.5905
vn -0.2149 -0.7994 0.5610
vn -0.4441 -0.7747 0.4501
vn 0.3982 -0.7309 0.5543
vn -0.7935 -0.2981 0.5305
vn 0.8586 -0.2915 0.4218
vn -0.8573 0.3621 0.3660
vn 0.8464 0.3628 0.3898
vn -0.4124 0.7875 0.4581
vn 0.3988 0.7878 0.4694
vn 0.2005 0.8573 0.4742
vn -0.2143 0.8571 0.4684
vn 0.8240 0.3963 0.4049
vn -0.8353 0.3956 0.3818
vn 0.1131 0.8126 -0.5718
vn -0.1299 0.8475 -0.5147
vn 0.1984 0.8345 -0.5140
vn -0.2237 0.8393 -0.4955
vn 0.6055 0.3872 -0.6953
vn -0.5862 0.3867 -0.7119
vn 0.7654 -0.0064 -0.6435
vn -0.7471 -0.0070 -0.6646
vn 0.8150 -0.1013 -0.5705
vn -0.7987 -0.1019 -0.5931
vn 0.2418 0.7442 -0.6226
vn -0.2249 0.7440 -0.6291
vn 0.4277 0.5351 -0.7285
vn -0.3472 0.6951 -0.6295
vn 0.6956 0.3856 -0.6062
vn -0.6787 0.3851 -0.6254
vn 0.5646 0.2541 -0.7853
vn -0.6943 0.3575 -0.6246
vn 0.8286 -0.3843 -0.4072
vn -0.3004 -0.3915 -0.8697
vn 0.5119 -0.6757 -0.5305
vn -0.5014 -0.6790 -0.5362
vn 0.6238 -0.5257 -0.5784
vn -0.6070 -0.5262 -0.5955
vn -0.0270 -0.7089 -0.7048
vn 0.0588 -0.6970 -0.7146
vn -0.7309 -0.4077 -0.5473
vn 0.7192 -0.3071 -0.6232
vn -0.5695 -0.6089 -0.5522
vn 0.6094 -0.5587 -0.5626
vn 0.5474 0.2792 -0.7889
vn -0.4985 0.5940 -0.6314
vn 0.2302 0.4200 -0.8778
vn -0.2059 0.4199 -0.8839
vn -0.0952 0.4522 -0.8868
vn 0.0464 0.5329 -0.8449
vn -0.0654 0.5295 -0.8458
vn 0.0988 0.7489 -0.6553
vn 0.0352 0.8351 -0.5490
vn -0.0409 0.1143 -0.9926
vn 0.1818 0.2602 -0.9483
vn -0.4133 0.0102 -0.9105
vn 0.4473 0.1319 -0.8846
vn -0.3222 0.1308 -0.9376
vn 0.3350 0.2254 -0.9149
vn -0.3454 0.2569 -0.9026
vn 0.4407 -0.1988 -0.8753
vn -0.4160 -0.1991 -0.8873
vn -0.0179 0.1348 -0.9907
vn 0.0454 0.1349 -0.9898
vn 0.1974 0.4475 -0.8722
vn -0.6723 0.2533 -0.6956
vn 0.2750 0.2991 -0.9137
vn -0.2496 0.2989 -0.9211
vn 0.0724 0.0289 -0.9970
vn 0.0203 0.1770 -0.9840
vn -0.0027 0.6073 -0.7944
vn 0.0244 0.6073 -0.7941
vn 0.2518 0.5021 -0.8273
vn -0.2290 0.5020 -0.8340
vn 0.3264 0.3441 -0.8804
vn -0.2997 0.1136 -0.9473
vn 0.2955 -0.0371 -0.9546
vn -0.2687 -0.0373 -0.9625
vn 0.3403 0.0909 -0.9359
vn -0.3141 0.0907 -0.9450
vn 0.0371 -0.1067 -0.9936
vn 0.0183 0.0093 -0.9998
vn 0.7809 0.6153 0.1072
vn -0.7841 0.6147 0.0853
vn 0.9611 -0.2044 0.1857
vn -0.9296 -0.2333 0.2853
vn 0.0961 -0.8934 0.4389
vn -0.0756 -0.8751 0.4780
vn -0.6840 -0.5749 -0.4490
vn 0.4358 0.8482 -0.3009
vn -0.4042 0.8841 -0.2345
vn -0.6622 -0.6845 -0.3049
vn 0.6710 -0.6840 -0.2863
vn 0.1424 -0.8392 -0.5248
vn -0.1271 -0.8393 -0.5285
vn 0.7717 -0.3283 -0.5447
vn -0.7450 -0.3198 -0.5854
vn 0.4162 0.8391 -0.3503
vn -0.4069 0.8388 -0.3618
vn 0.0509 -0.2787 -0.9590
vn -0.0368 -0.2882 -0.9569
vn 0.1439 0.2071 -0.9677
vn -0.1170 0.2070 -0.9713
vn -0.0549 0.7875 -0.6138
vn 0.0714 0.7876 -0.6121
vn 0.7409 -0.3156 -0.5928
vn -0.7239 -0.3162 -0.6132
vn 0.3450 -0.1260 -0.9301
vn -0.5357 0.3901 -0.7489
vn 0.2948 -0.1195 -0.9480
vn -0.3099 -0.0840 -0.9471
vn 0.8812 -0.2297 -0.4132
vn -0.7281 -0.4215 -0.5406
vn 0.9026 -0.2207 -0.3695
vn -0.8421 -0.3415 -0.4174
vn 0.9624 -0.0814 -0.2592
vn -0.9547 -0.0821 -0.2860
vn 0.2588 0.8401 -0.4768
vn -0.1657 0.3656 -0.9159
vn -0.1616 0.1501 -0.9754
vn 0.1886 0.1503 -0.9705
vn -0.1082 0.1281 -0.9858
vn 0.1356 0.1282 -0.9824
vn -0.1432 -0.3642 -0.9202
vn 0.1691 -0.3641 -0.9159
vn -0.7230 -0.6892 -0.0479
vn 0.7246 -0.6886 -0.0277
vn 0.0613 0.2332 -0.9705
vn -0.0344 0.2331 -0.9718
vn -0.5379 0.2857 -0.7931
vn 0.5596 0.2861 -0.7778
vn -0.4824 0.0645 -0.8736
vn 0.5065 0.0649 -0.8598
vn -0.2461 -0.1573 -0.9564
vn 0.1854 -0.0459 -0.9816
vn -0.6600 0.4259 -0.6189
vn 0.4440 0.4445 -0.7780
vn -0.1047 0.5923 -0.7989
vn 0.1265 0.5923 -0.7957
vn 0.4336 0.5835 -0.6867
vn -0.4147 0.5832 -0.6985
vn 0.4880 0.3105 -0.8158
vn -0.4653 0.3101 -0.8291
vn 0.5983 0.0390 -0.8003
vn -0.5758 0.0386 -0.8167
vn 0.5885 -0.1602 -0.7924
vn -0.5543 -0.1652 -0.8158
vn 0.5287 -0.6865 -0.4992
vn -0.3970 -0.4533 -0.7981
vn 0.3478 -0.3960 -0.8499
vn -0.3237 -0.3962 -0.8592
vn 0.1578 -0.4279 -0.8900
vn -0.1325 -0.4280 -0.8940
vn 0.0436 -0.2845 -0.9577
vn -0.0166 -0.2846 -0.9585
vn 0.4583 0.4269 -0.7796
vn -0.4367 0.4266 -0.7920
vn 0.2759 0.1726 -0.9456
vn -0.2495 0.1724 -0.9529
vn -0.0498 0.2622 -0.9637
vn 0.3825 0.8102 -0.4441
vn -0.1960 0.8850 -0.4224
vn -0.0734 0.7465 -0.6613
vn -0.3228 0.1884 -0.9275
vn 0.3484 0.1886 -0.9182
vn -0.4443 -0.1004 -0.8902
vn 0.2826 0.0040 -0.9592
vn -0.0121 -0.4575 -0.8891
vn 0.0373 -0.4575 -0.8884
vn -0.0388 -0.7212 -0.6916
vn 0.0327 -0.6001 -0.7992
vn 0.3485 -0.5649 -0.7480
vn -0.3686 -0.6710 -0.6434
vn 0.5081 -0.5672 -0.6481
vn 0.7969 0.2862 -0.5321
vn -0.7819 0.2856 -0.5541
vn 0.8151 0.0482 -0.5773
vn -0.7987 0.0476 -0.5998
vn 0.7951 -0.1543 -0.5865
vn -0.7783 -0.1549 -0.6084
vn -0.6410 -0.6600 0.3918
vn 0.6303 -0.6595 0.4095
vn -0.8560 -0.3437 0.3861
vn 0.8452 -0.3430 0.4099
vn -0.2264 -0.8359 0.5000
vn 0.2602 -0.8465 0.4644
vn 0.5868 -0.7308 0.3487
vn -0.5978 -0.7264 0.3391
vn 0.3608 -0.8654 0.3477
vn -0.3763 -0.8489 0.3711
vn 0.2716 -0.8981 0.3460
vn -0.2804 -0.8983 0.3383
vn 0.7881 -0.0988 0.6076
vn -0.8934 -0.1098 0.4356
vn 0.5392 0.7722 0.3361
vn -0.5490 0.7717 0.3210
vn 0.3953 0.7619 0.5130
vn -0.4101 0.7616 0.5018
vn 0.1550 0.7041 0.6929
vn -0.3733 0.4324 0.8208
vn 0.2878 0.0659 0.9554
vn -0.2087 0.1518 0.9661
vn 0.2436 0.3619 0.8999
vn -0.0006 0.6085 0.7935
vn 0.0773 0.9969 0.0118
vn -0.0784 0.9969 0.0096
vn 0.1069 0.9820 0.1559
vn -0.1120 0.9819 0.1528
vn 0.8132 0.5694 0.1203
vn -0.8167 0.5688 0.0975
vn 0.9312 -0.1209 0.3439
vn -0.9403 -0.1217 0.3178
vn 0.0993 0.0828 0.9916
vn -0.1270 0.0827 0.9884
vn -0.1624 0.4142 0.8956
vn -0.1349 0.1082 0.9849
vn 0.3619 0.7125 0.6011
vn -0.9148 -0.1153 0.3871
vn 0.9140 -0.1182 0.3882
vn -0.9244 -0.1189 0.3625
vn 0.9429 -0.2561 0.2128
vn -0.9201 -0.3326 0.2067
vn 0.9304 -0.2681 0.2498
vn -0.9038 -0.3507 0.2454
vn 0.9473 -0.2341 0.2188
vn -0.8931 -0.4394 -0.0965
vn 0.1756 0.8182 0.5475
vn -0.1626 0.9695 0.1833
vn 0.3617 0.5198 0.7739
vn -0.3802 0.5150 0.7682
vn 0.3204 0.8578 0.4018
vn -0.3050 0.8492 0.4312
vn 0.2606 0.9628 0.0717
vn -0.2633 0.9626 0.0644
vn 0.2981 0.9505 0.0874
vn -0.3011 0.9503 0.0791
vn 0.8667 0.4638 -0.1837
vn -0.8368 -0.3082 0.4526
vn 0.6920 0.6154 -0.3774
vn -0.6817 0.6149 -0.3966
vn 0.4067 0.2754 0.8711
vn -0.3083 0.0985 0.9462
vn 0.1150 -0.9748 -0.1911
vn -0.1244 -0.9769 -0.1735
vn 0.1177 -0.9610 0.2504
vn -0.1239 -0.9611 0.2470
vn 0.3032 -0.5277 0.7935
vn -0.3248 -0.5280 0.7847
vn 0.3201 -0.9171 0.2378
vn -0.3259 -0.9173 0.2288
vn 0.0533 -0.8279 -0.5583
vn -0.0371 -0.8280 -0.5595
vn 0.6165 -0.7779 -0.1220
vn -0.6122 -0.7783 -0.1391
vn 0.6900 -0.6720 0.2688
vn -0.6967 -0.6726 0.2494
vn 0.6200 -0.2101 0.7560
vn -0.7201 -0.0979 0.6870
vn 0.3071 -0.5271 0.7924
vn -0.3287 -0.5273 0.7835
vn 0.6265 -0.7524 0.2035
vn -0.6313 -0.7529 0.1860
vn 0.7109 -0.6917 -0.1269
vn -0.7066 -0.6923 -0.1467
vn 0.6969 -0.4165 -0.5838
vn -0.6800 -0.4170 -0.6031
vn 0.3224 -0.9378 0.1290
vn -0.3713 -0.8665 0.3335
vn 0.1664 -0.5545 -0.8154
vn -0.2755 -0.6635 -0.6956
vn -0.1919 -0.0343 0.9808
vn 0.1565 -0.0548 0.9862
vn -0.2668 -0.9344 0.2359
vn 0.2608 -0.9342 0.2433
vn 0.9376 -0.2403 -0.2512
vn -0.8749 -0.0622 0.4804
vn 0.9782 -0.1335 -0.1592
vn -0.9732 -0.1343 -0.1864
vn 0.9579 -0.1336 0.2542
vn -0.9645 -0.1343 0.2274
vn 0.9951 -0.0872 0.0476
vn -0.9842 0.0404 0.1725
vn 0.6389 0.7590 -0.1251
vn -0.7459 0.6617 -0.0760
vn 0.3735 0.9184 -0.1308
vn -0.3707 0.9179 -0.1414
vn 0.5305 0.8258 -0.1912
vn -0.5256 0.8254 -0.2060
vn 0.3183 0.4787 -0.8183
vn -0.2957 0.4784 -0.8268
vn 0.5127 0.3726 0.7735
vn -0.5983 0.3481 0.7217
vn 0.5289 0.3771 0.7603
vn -0.4811 0.2868 0.8284
vn 0.2076 0.8613 0.4638
vn -0.4500 0.8601 0.2402
vn 0.7328 0.6304 0.2563
vn -0.7009 0.6752 0.2300
vn 0.3355 -0.5311 -0.7781
vn -0.3568 -0.3346 -0.8722
vn 0.4765 -0.3060 -0.8242
vn -0.4531 -0.3064 -0.8372
vn 0.1954 -0.0469 -0.9796
vn -0.3060 -0.2508 -0.9184
vn 0.3058 0.0226 -0.9518
vn -0.1940 0.0290 -0.9806
vn 0.5956 0.1760 -0.7837
vn -0.3267 -0.1347 -0.9355
vn 0.6611 0.1529 -0.7345
vn -0.6405 0.1524 -0.7527
vn 0.4144 -0.7783 -0.4716
vn -0.4005 -0.7787 -0.4830
vn -0.2589 -0.8559 -0.4477
vn 0.2720 -0.8557 -0.4403
vn -0.7806 -0.2682 -0.5646
vn 0.8639 -0.2476 -0.4386
vn -0.5132 0.3109 -0.8000
vn 0.5365 0.3145 -0.7831
vn 0.4493 0.4839 -0.7510
vn -0.4569 0.5616 -0.6898
vn 0.6969 0.4103 -0.5882
vn -0.6806 0.4098 -0.6074
vn 0.6322 0.7577 -0.1620
vn -0.7538 0.6256 0.2010
vn -0.2045 -0.3253 -0.9232
vn 0.1918 -0.3443 -0.9191
vn 0.9021 0.3966 0.1699
vn -0.9068 0.3959 0.1447
vn 0.1919 0.0343 -0.9808
vn -0.1645 0.0342 -0.9858
vn -0.2286 -0.9168 -0.3274
vn 0.2384 -0.9166 -0.3209
vn 0.7270 -0.2060 -0.6550
vn -0.4369 0.4039 -0.8037
vn 0.5395 -0.6175 -0.5723
vn -0.5229 -0.6179 -0.5872
vn 0.9029 0.3988 -0.1601
vn -0.5444 0.5175 -0.6601
vn 0.5904 0.4862 -0.6442
vn -0.5616 0.2692 -0.7824
vn 0.6242 0.2153 -0.7510
vn -0.5508 0.5178 -0.6546
vn 0.1850 0.0386 -0.9820
vn -0.9584 0.1768 0.2241
vn 0.8689 0.4557 0.1933
vn -0.9236 0.3802 0.0485
vn 0.7675 0.6305 -0.1156
vn -0.7645 0.6299 -0.1369
vn 0.7950 0.5867 -0.1541
vn -0.7800 0.6114 -0.1335
vn 0.7041 0.6949 -0.1463
vn 0.2387 -0.9548 0.1773
vn -0.1241 -0.9917 0.0330
vn 0.9271 -0.3546 -0.1217
vn -0.9420 -0.3202 -0.1003
vn 0.7073 0.7063 -0.0296
vn -0.7068 0.7057 -0.0493
vn -0.0141 -0.9962 -0.0861
vn 0.0173 -0.9962 -0.0857
vn 0.6309 0.7038 -0.3266
vn -0.6221 0.7033 -0.3441
vn 0.2764 0.8821 -0.3813
vn -0.2664 0.8819 -0.3889
vn -0.8666 0.4913 0.0872
vn 0.8635 0.4920 0.1114
vn -0.8603 -0.2068 0.4660
vn 0.8020 -0.2124 0.5583
vn -0.5500 -0.6717 0.4963
vn 0.5606 -0.8171 0.1340
vn -0.1102 -0.9915 0.0696
vn 0.0087 -0.9963 -0.0858
vn 0.1875 -0.0645 -0.9801
vn -0.0907 -0.0947 -0.9914
vn 0.4261 -0.0919 -0.9000
vn -0.2326 -0.1390 -0.9626
vn 0.3360 -0.0066 -0.9418
vn -0.3096 -0.0069 -0.9509
vn 0.1358 -0.1010 -0.9856
vn -0.1967 -0.0670 -0.9782
vn 0.5789 -0.2357 -0.7806
vn -0.5567 -0.2362 -0.7964
vn 0.4370 -0.0184 -0.8993
vn -0.3657 -0.0154 -0.9306
vn 0.2704 -0.1259 -0.9545
vn -0.2396 0.1364 -0.9612
vn 0.1489 -0.0328 -0.9883
vn -0.1212 -0.0329 -0.9921
vn -0.2901 -0.7776 -0.5578
vn 0.4955 -0.6426 -0.5844
vn 0.5685 0.1029 -0.8162
vn -0.5456 0.1025 -0.8318
vn 0.4843 0.1505 -0.8618
vn -0.4265 0.1514 -0.8917
vn 0.3097 0.3575 -0.8811
vn -0.5673 0.0880 -0.8188
vn 0.5879 -0.2598 -0.7661
vn -0.5661 -0.2603 -0.7822
vn 0.0925 0.9956 0.0150
vn -0.0937 0.9955 0.0124
vn 0.5152 0.8561 0.0407
vn -0.5168 0.8557 0.0263
vn 0.9304 0.2300 -0.2854
vn -0.9270 0.2387 -0.2892
vn 0.8263 -0.5613 0.0464
vn -0.8474 -0.5252 0.0771
vn -0.2193 -0.9053 0.3637
vn 0.2477 -0.9304 0.2704
vn -0.4227 -0.8727 0.2444
vn 0.4832 -0.8707 0.0916
vn -0.5586 0.0609 0.8272
vn 0.5137 0.0507 0.8565
vn -0.2690 0.1285 0.9545
vn 0.2421 0.1287 0.9617
vn -0.7325 -0.6804 -0.0194
vn 0.8071 -0.5891 0.0401
vn 0.6745 0.2107 0.7076
vn -0.6941 0.2101 0.6885
vn -0.3660 0.8508 0.3770
vn 0.3547 0.8511 0.3871
vt 0.843250 0.588863
vt 0.794218 0.611927
vt 0.815334 0.560948
vt 0.866314 0.937441
vt 0.889378 0.888409
vt 0.917293 0.916324
vt 0.746541 0.611927
vt 0.781622 0.527235
vt 0.866314 0.985118
vt 0.951006 0.950037
vt 0.781622 0.696619
vt 0.781622 0.950037
vt 0.833697 0.611927
vt 0.815334 0.662907
vt 0.815334 0.916325
vt 0.866314 0.897962
vt 0.843250 0.634991
vt 0.866314 0.684023
vt 0.794218 0.865345
vt 0.843250 0.888409
vt 0.866314 0.731700
vt 0.746541 0.865345
vt 0.917293 0.662907
vt 0.815334 0.814366
vt 0.781622 0.780653
vt 0.889378 0.634991
vt 0.866314 0.644544
vt 0.843250 0.842281
vt 0.938410 0.611927
vt 0.866314 0.793249
vt 0.951006 0.696619
vt 0.866314 0.745572
vt 0.917294 0.560947
vt 0.986087 0.611927
vt 0.917294 0.814365
vt 0.951006 0.780653
vt 0.889378 0.588863
vt 0.898931 0.611927
vt 0.889378 0.842281
vt 0.866314 0.579310
vt 0.898931 0.865345
vt 0.938410 0.865345
vt 0.866314 0.539831
vt 0.951006 0.527235
vt 0.986087 0.865345
vt 0.866314 0.492154
vt 0.847600 0.593213
vt 0.885028 0.884059
vt 0.892780 0.865345
vt 0.866314 0.585461
vt 0.885028 0.846631
vt 0.885028 0.593213
vt 0.866314 0.832728
vt 0.866314 0.838879
vt 0.892780 0.611927
vt 0.847600 0.846631
vt 0.866314 0.638393
vt 0.885028 0.630641
vt 0.839848 0.865345
vt 0.847600 0.630641
vt 0.847600 0.884059
vt 0.833697 0.865345
vt 0.839848 0.611927
vt 0.866314 0.891811
vt 0.866314 0.611927
vt 0.866314 0.865345
vt 0.517028 0.068490
vt 0.500000 0.054411
vt 0.520711 0.060503
vt 0.482972 0.068490
vt 0.500000 0.064527
vt 0.522612 0.070678
vt 0.530457 0.065062
vt 0.477388 0.070678
vt 0.479289 0.060503
vt 0.532878 0.067822
vt 0.467122 0.067822
vt 0.469543 0.065062
vt 0.544695 0.083023
vt 0.526301 0.079422
vt 0.473699 0.079422
vt 0.455305 0.083023
vt 0.565647 0.115495
vt 0.529228 0.091098
vt 0.470772 0.091098
vt 0.434353 0.115495
vt 0.586916 0.172042
vt 0.600470 0.238288
vt 0.535885 0.215568
vt 0.399530 0.238288
vt 0.413084 0.172042
vt 0.464115 0.215568
vt 0.650908 0.240294
vt 0.626605 0.208159
vt 0.349092 0.240294
vt 0.363038 0.261221
vt 0.655896 0.284413
vt 0.636962 0.261221
vt 0.344104 0.284413
vt 0.684517 0.317795
vt 0.689501 0.268805
vt 0.315483 0.317795
vt 0.340493 0.313152
vt 0.671357 0.334694
vt 0.659507 0.313152
vt 0.328643 0.334694
vt 0.350893 0.322437
vt 0.636775 0.370732
vt 0.649107 0.322437
vt 0.363225 0.370732
vt 0.386364 0.353108
vt 0.594178 0.371277
vt 0.613636 0.353108
vt 0.405822 0.371277
vt 0.581044 0.398468
vt 0.602261 0.395588
vt 0.418956 0.398468
vt 0.422649 0.373341
vt 0.532016 0.387365
vt 0.577351 0.373341
vt 0.467984 0.387365
vt 0.460183 0.354339
vt 0.500000 0.382860
vt 0.539817 0.354339
vt 0.500000 0.340417
vt 0.579057 0.335646
vt 0.559135 0.334326
vt 0.420943 0.335646
vt 0.592090 0.332885
vt 0.606163 0.325516
vt 0.407910 0.332885
vt 0.628251 0.311636
vt 0.393837 0.325516
vt 0.635551 0.300507
vt 0.371749 0.311636
vt 0.631484 0.283889
vt 0.364449 0.300507
vt 0.611331 0.264411
vt 0.368516 0.283889
vt 0.592372 0.254897
vt 0.388669 0.264411
vt 0.559669 0.267717
vt 0.440331 0.267717
vt 0.407628 0.254897
vt 0.500000 0.252445
vt 0.544001 0.314523
vt 0.455999 0.314523
vt 0.500000 0.295691
vt 0.543637 0.293371
vt 0.456363 0.293371
vt 0.550878 0.277832
vt 0.449122 0.277832
vt 0.506819 0.075382
vt 0.493181 0.075382
vt 0.511782 0.080633
vt 0.488218 0.080633
vt 0.512172 0.093457
vt 0.537536 0.127779
vt 0.513874 0.097191
vt 0.486126 0.097191
vt 0.462464 0.127779
vt 0.487828 0.093457
vt 0.500000 0.157864
vt 0.514257 0.133422
vt 0.520226 0.164615
vt 0.485743 0.133422
vt 0.500000 0.134352
vt 0.500000 0.100063
vt 0.500000 0.091346
vt 0.530258 0.180239
vt 0.517666 0.172353
vt 0.482334 0.172353
vt 0.469742 0.180239
vt 0.479774 0.164615
vt 0.518957 0.194728
vt 0.523673 0.198817
vt 0.481043 0.194728
vt 0.478099 0.181560
vt 0.508211 0.197295
vt 0.500000 0.203867
vt 0.491789 0.197295
vt 0.476327 0.198817
vt 0.500000 0.192167
vt 0.500000 0.197278
vt 0.500000 0.165170
vt 0.500000 0.171718
vt 0.486462 0.176949
vt 0.508818 0.192407
vt 0.491182 0.192407
vt 0.515232 0.190709
vt 0.484768 0.190709
vt 0.521901 0.181560
vt 0.483092 0.181873
vt 0.513538 0.176949
vt 0.516908 0.181873
vt 0.500000 0.186182
vt 0.544209 0.172814
vt 0.455791 0.172814
vt 0.458673 0.154899
vt 0.541327 0.154899
vt 0.578661 0.139176
vt 0.421339 0.139176
vt 0.583245 0.154155
vt 0.416755 0.154155
vt 0.509911 0.090724
vt 0.490089 0.090724
vt 0.500000 0.089977
vt 0.509713 0.082236
vt 0.490287 0.082236
vt 0.505196 0.077083
vt 0.494804 0.077083
vt 0.500000 0.073497
vt 0.500000 0.075473
vt 0.500000 0.080320
vt 0.496555 0.080840
vt 0.506660 0.083289
vt 0.503445 0.080840
vt 0.493340 0.083289
vt 0.506822 0.086791
vt 0.493178 0.086791
vt 0.500000 0.085637
vt 0.562361 0.284338
vt 0.559190 0.294882
vt 0.437639 0.284338
vt 0.440810 0.294882
vt 0.563180 0.307151
vt 0.436820 0.307151
vt 0.570458 0.318697
vt 0.429542 0.318697
vt 0.430757 0.278245
vt 0.589914 0.271772
vt 0.569243 0.278245
vt 0.410086 0.271772
vt 0.602190 0.277180
vt 0.397810 0.277180
vt 0.617110 0.287175
vt 0.382890 0.287175
vt 0.618074 0.299197
vt 0.381926 0.299197
vt 0.384129 0.307438
vt 0.615871 0.307438
vt 0.401576 0.313725
vt 0.590828 0.319797
vt 0.598424 0.313725
vt 0.409172 0.319797
vt 0.582130 0.320991
vt 0.417870 0.320991
vt 0.578615 0.309394
vt 0.583998 0.312892
vt 0.421385 0.309394
vt 0.416002 0.312892
vt 0.589656 0.312336
vt 0.410344 0.312336
vt 0.596347 0.309249
vt 0.403653 0.309249
vt 0.606014 0.302517
vt 0.393986 0.302517
vt 0.607735 0.297520
vt 0.392265 0.297520
vt 0.606985 0.291216
vt 0.393015 0.291216
vt 0.598275 0.283083
vt 0.401725 0.283083
vt 0.589866 0.280167
vt 0.410134 0.280167
vt 0.576352 0.284624
vt 0.423648 0.284624
vt 0.572831 0.289915
vt 0.427169 0.289915
vt 0.573307 0.303342
vt 0.426693 0.303342
vt 0.572447 0.295716
vt 0.427553 0.295716
vt 0.529647 0.428636
vt 0.500000 0.428636
vt 0.470353 0.428636
vt 0.584616 0.428636
vt 0.415384 0.428636
vt 0.397739 0.395588
vt 0.377699 0.417889
vt 0.622301 0.417889
vt 0.333786 0.388954
vt 0.666214 0.388954
vt 0.298519 0.344467
vt 0.712163 0.315527
vt 0.701481 0.344467
vt 0.287837 0.315527
vt 0.310499 0.268805
vt 0.295695 0.260225
vt 0.672947 0.224880
vt 0.704305 0.260225
vt 0.327053 0.224880
vt 0.640497 0.198841
vt 0.359503 0.198841
vt 0.625128 0.029461
vt 0.598617 0.056841
vt 0.603553 0.023452
vt 0.374872 0.029461
vt 0.401383 0.056841
vt 0.364247 0.082198
vt 0.556354 0.040906
vt 0.546781 0.009442
vt 0.396447 0.023452
vt 0.443646 0.040906
vt 0.527159 0.049514
vt 0.500000 0.033223
vt 0.453219 0.009442
vt 0.472841 0.049514
vt 0.537222 0.060794
vt 0.462778 0.060794
vt 0.558499 0.065137
vt 0.441501 0.065137
vt 0.588127 0.085177
vt 0.411873 0.085177
vt 0.635753 0.082198
vt 0.607239 0.113940
vt 0.392761 0.113940
vt 0.612663 0.133675
vt 0.387337 0.133675
vt 0.394533 0.151503
vt 0.600708 0.162985
vt 0.399292 0.162985
vt 0.373395 0.208159
vt 0.859647 0.117994
vt 0.861342 0.027230
vt 0.922374 0.064228
vt 0.140353 0.117994
vt 0.138658 0.027230
vt 0.176713 0.101559
vt 0.823287 0.101559
vt 0.774604 0.010837
vt 0.225396 0.010837
vt 0.234137 0.087001
vt 0.661952 0.087561
vt 0.647010 0.028716
vt 0.338048 0.087561
vt 0.352990 0.028716
vt 0.743592 0.198572
vt 0.766410 0.233065
vt 0.256408 0.198572
vt 0.233590 0.233065
vt 0.889478 0.177602
vt 0.987633 0.154243
vt 0.110522 0.177602
vt 0.077626 0.064228
vt 0.844317 0.347370
vt 0.958963 0.357385
vt 0.899807 0.420886
vt 0.155683 0.347370
vt 0.041037 0.357385
vt 0.118831 0.309153
vt 0.903302 0.261367
vt 0.999860 0.253531
vt 0.096698 0.261367
vt 0.000140 0.253531
vt 0.012367 0.154243
vt 0.724763 0.340212
vt 0.744725 0.304629
vt 0.766113 0.319494
vt 0.255275 0.304629
vt 0.275237 0.340212
vt 0.233887 0.319494
vt 0.793427 0.280495
vt 0.826663 0.297810
vt 0.206573 0.280495
vt 0.173337 0.297810
vt 0.823620 0.254612
vt 0.855331 0.267956
vt 0.176380 0.254612
vt 0.144669 0.267956
vt 0.835860 0.225225
vt 0.868309 0.233525
vt 0.164140 0.225225
vt 0.131691 0.233525
vt 0.851288 0.181145
vt 0.813499 0.190705
vt 0.148712 0.181145
vt 0.881169 0.309153
vt 0.772263 0.374010
vt 0.744519 0.390057
vt 0.227737 0.374010
vt 0.824765 0.470987
vt 0.100193 0.420886
vt 0.742181 0.461543
vt 0.792141 0.464714
vt 0.257819 0.461543
vt 0.255481 0.390057
vt 0.273145 0.432574
vt 0.207859 0.464714
vt 0.175235 0.470987
vt 0.795638 0.489991
vt 0.204362 0.489991
vt 0.786137 0.227788
vt 0.213863 0.227788
vt 0.802950 0.203415
vt 0.197050 0.203415
vt 0.765863 0.087001
vt 0.691484 0.146686
vt 0.308516 0.146686
vt 0.230666 0.128771
vt 0.780113 0.169386
vt 0.219887 0.169386
vt 0.605467 0.151503
vt 0.803789 0.171181
vt 0.196211 0.171181
vt 0.169083 0.139518
vt 0.769334 0.128771
vt 0.830917 0.139518
vt 0.464516 0.959188
vt 0.545439 0.884582
vt 0.574628 0.959188
vt 0.285710 0.959188
vt 0.204787 0.884582
vt 0.272900 0.891852
vt 0.605134 0.846978
vt 0.715894 0.897069
vt 0.145092 0.846978
vt 0.175598 0.959188
vt 0.034332 0.897069
vt 0.683874 0.757011
vt 0.066352 0.757011
vt 0.144866 0.784410
vt 0.605360 0.784410
vt 0.617867 0.719156
vt 0.132359 0.719156
vt 0.175391 0.744212
vt 0.574835 0.744212
vt 0.568728 0.682132
vt 0.181498 0.682132
vt 0.215230 0.712528
vt 0.483006 0.686791
vt 0.508539 0.641024
vt 0.267220 0.686791
vt 0.241687 0.641024
vt 0.534996 0.712528
vt 0.478880 0.719593
vt 0.271346 0.719593
vt 0.513415 0.736977
vt 0.236811 0.736977
vt 0.557599 0.789442
vt 0.192627 0.789442
vt 0.209109 0.760754
vt 0.553841 0.821849
vt 0.196385 0.821849
vt 0.524671 0.842380
vt 0.225555 0.842380
vt 0.485193 0.845321
vt 0.265033 0.845321
vt 0.770208 0.191225
vt 0.229792 0.191225
vt 0.213850 0.181127
vt 0.409610 0.674022
vt 0.408153 0.587507
vt 0.340616 0.674022
vt 0.400301 0.910556
vt 0.477326 0.891852
vt 0.349925 0.910556
vt 0.443630 0.713731
vt 0.306596 0.713731
vt 0.392812 0.710774
vt 0.429725 0.728622
vt 0.357414 0.710774
vt 0.422979 0.754609
vt 0.432640 0.746527
vt 0.320501 0.728622
vt 0.327247 0.754609
vt 0.317586 0.746527
vt 0.391578 0.815187
vt 0.427719 0.796173
vt 0.358648 0.815187
vt 0.448277 0.830976
vt 0.414155 0.878318
vt 0.301949 0.830976
vt 0.322507 0.796173
vt 0.336071 0.878318
vt 0.797710 0.195652
vt 0.202290 0.195652
vt 0.197420 0.199758
vt 0.210391 0.184671
vt 0.786150 0.181127
vt 0.789609 0.184671
vt 0.466042 0.804091
vt 0.490498 0.816075
vt 0.284184 0.804091
vt 0.259728 0.816075
vt 0.302184 0.783921
vt 0.438745 0.764960
vt 0.448042 0.783921
vt 0.311481 0.764960
vt 0.305010 0.756351
vt 0.445216 0.756351
vt 0.300407 0.743458
vt 0.456307 0.732687
vt 0.449819 0.743458
vt 0.293919 0.732687
vt 0.475471 0.740871
vt 0.274755 0.740871
vt 0.514211 0.817769
vt 0.236015 0.817769
vt 0.527961 0.808598
vt 0.222265 0.808598
vt 0.530079 0.790754
vt 0.220147 0.790754
vt 0.518620 0.772385
vt 0.541117 0.760754
vt 0.231606 0.772385
vt 0.498668 0.755033
vt 0.251558 0.755033
vt 0.459660 0.770459
vt 0.290566 0.770459
vt 0.282197 0.756171
vt 0.468029 0.756171
vt 0.477354 0.785393
vt 0.272872 0.785393
vt 0.263059 0.769899
vt 0.504617 0.782999
vt 0.496545 0.797122
vt 0.245609 0.782999
vt 0.253681 0.797122
vt 0.513713 0.804019
vt 0.236513 0.804019
vt 0.234089 0.792591
vt 0.516137 0.792591
vt 0.574269 0.607668
vt 0.613510 0.655816
vt 0.175957 0.607668
vt 0.136716 0.655816
vt 0.644031 0.693270
vt 0.106195 0.693270
vt 0.668163 0.712097
vt 0.082063 0.712097
vt 0.676584 0.686010
vt 0.727131 0.698475
vt 0.073642 0.686010
vt 0.667013 0.640198
vt 0.729804 0.624370
vt 0.023095 0.698475
vt 0.083213 0.640198
vt 0.648152 0.594596
vt 0.721292 0.572934
vt 0.020422 0.624370
vt 0.102074 0.594596
vt 0.717709 0.538143
vt 0.630034 0.557583
vt 0.032517 0.538143
vt 0.028934 0.572934
vt 0.526877 0.539235
vt 0.120192 0.557583
vt 0.223349 0.539235
vt 0.342073 0.587507
vt 0.440865 0.334326
vt 0.186501 0.190705
vt 0.726855 0.432574
vt 0.802580 0.199758
vt 0.487167 0.769899
s 0
f 47/1/1 3/2/1 45/3/1
f 4/4/2 48/5/2 46/6/2
f 45/3/3 5/7/3 43/8/3
f 6/9/4 46/6/4 44/10/4
f 3/2/5 7/11/5 5/7/5
f 8/12/6 4/4/6 6/9/6
f 1/13/7 9/14/7 3/2/7
f 10/15/8 2/16/8 4/4/8
f 11/17/9 15/18/9 9/14/9
f 16/19/10 12/20/10 10/15/10
f 9/14/11 17/21/11 7/11/11
f 18/22/12 10/15/12 8/12/12
f 21/23/13 17/21/13 15/18/13
f 22/24/14 18/22/14 20/25/14
f 23/26/15 15/18/15 13/27/15
f 24/28/16 16/19/16 22/24/16
f 23/26/17 27/29/17 21/23/17
f 28/30/18 24/28/18 22/24/18
f 27/29/19 19/31/19 21/23/19
f 28/30/20 20/25/20 30/32/20
f 33/33/21 29/34/21 27/29/21
f 34/35/22 30/32/22 32/36/22
f 35/37/23 27/29/23 25/38/23
f 36/39/24 28/30/24 34/35/24
f 37/40/25 33/33/25 35/37/25
f 38/41/26 34/35/26 40/42/26
f 39/43/27 31/44/27 33/33/27
f 40/42/28 32/36/28 42/45/28
f 45/3/29 41/46/29 39/43/29
f 46/6/30 42/45/30 44/10/30
f 47/1/31 39/43/31 37/40/31
f 48/5/32 40/42/32 46/6/32
f 37/40/33 49/47/33 47/1/33
f 38/41/34 50/48/34 52/49/34
f 35/37/35 51/50/35 37/40/35
f 36/39/36 52/49/36 54/51/36
f 25/38/37 53/52/37 35/37/37
f 26/53/38 54/51/38 56/54/38
f 23/26/39 55/55/39 25/38/39
f 24/28/40 56/54/40 58/56/40
f 23/26/41 59/57/41 57/58/41
f 60/59/42 24/28/42 58/56/42
f 13/27/43 63/60/43 59/57/43
f 64/61/44 14/62/44 60/59/44
f 11/17/45 65/63/45 63/60/45
f 66/64/46 12/20/46 64/61/46
f 1/13/47 49/47/47 65/63/47
f 50/48/48 2/16/48 66/64/48
f 61/65/49 65/63/49 49/47/49
f 50/48/50 66/64/50 62/66/50
f 63/60/51 65/63/51 61/65/51
f 62/66/52 66/64/52 64/61/52
f 61/65/53 59/57/53 63/60/53
f 64/61/54 60/59/54 62/66/54
f 61/65/55 57/58/55 59/57/55
f 60/59/56 58/56/56 62/66/56
f 61/65/57 55/55/57 57/58/57
f 58/56/58 56/54/58 62/66/58
f 61/65/59 53/52/59 55/55/59
f 56/54/60 54/51/60 62/66/60
f 61/65/61 51/50/61 53/52/61
f 54/51/62 52/49/62 62/66/62
f 61/65/63 49/47/63 51/50/63
f 52/49/64 50/48/64 62/66/64
f 174/67/65 91/68/65 89/69/65
f 175/70/66 91/68/66 176/71/66
f 172/72/67 89/69/67 87/73/67
f 173/74/68 90/75/68 175/70/68
f 85/76/69 172/72/69 87/73/69
f 173/74/70 86/77/70 88/78/70
f 83/79/71 170/80/71 85/76/71
f 171/81/72 84/82/72 86/77/72
f 81/83/73 168/84/73 83/79/73
f 169/85/74 82/86/74 84/82/74
f 79/87/75 146/88/75 164/89/75
f 147/90/76 80/91/76 165/92/76
f 94/93/77 146/88/77 92/94/77
f 95/95/78 147/90/78 149/96/78
f 94/93/79 150/97/79 148/98/79
f 151/99/80 95/95/80 149/96/80
f 98/100/81 150/97/81 96/101/81
f 99/102/82 151/99/82 153/103/82
f 100/104/83 152/105/83 98/100/83
f 101/106/84 153/103/84 155/107/84
f 102/108/85 154/109/85 100/104/85
f 103/110/86 155/107/86 157/111/86
f 102/108/87 158/112/87 156/113/87
f 159/114/88 103/110/88 157/111/88
f 106/115/89 158/112/89 104/116/89
f 107/117/90 159/114/90 161/118/90
f 108/119/91 160/120/91 106/115/91
f 109/121/92 161/118/92 163/122/92
f 67/123/93 162/124/93 108/119/93
f 67/123/94 163/122/94 68/125/94
f 128/126/95 162/124/95 110/127/95
f 129/128/96 163/122/96 161/118/96
f 128/126/97 158/112/97 160/120/97
f 159/114/98 129/128/98 161/118/98
f 156/113/99 179/129/99 126/130/99
f 157/111/100 180/131/100 159/114/100
f 154/109/101 126/130/101 124/132/101
f 155/107/102 127/133/102 157/111/102
f 152/105/103 124/132/103 122/134/103
f 153/103/104 125/135/104 155/107/104
f 150/97/105 122/134/105 120/136/105
f 151/99/106 123/137/106 153/103/106
f 148/98/107 120/136/107 118/138/107
f 149/96/108 121/139/108 151/99/108
f 146/88/109 118/138/109 116/140/109
f 147/90/110 119/141/110 149/96/110
f 114/142/111 146/88/111 116/140/111
f 147/90/111 115/143/111 117/144/111
f 114/142/112 177/145/112 164/89/112
f 177/145/113 115/143/113 165/92/113
f 162/124/114 112/146/114 110/127/114
f 163/122/115 113/147/115 68/125/115
f 112/146/116 178/148/116 183/149/116
f 178/148/117 113/147/117 184/150/117
f 181/151/118 178/148/118 177/145/118
f 182/152/119 178/148/119 184/150/119
f 135/153/120 176/71/120 174/67/120
f 176/71/121 136/154/121 175/70/121
f 133/155/122 174/67/122 172/72/122
f 175/70/123 134/156/123 173/74/123
f 133/155/124 170/80/124 131/157/124
f 134/156/125 171/81/125 173/74/125
f 166/158/126 185/159/126 168/84/126
f 186/160/127 167/161/127 169/85/127
f 131/157/128 168/84/128 185/159/128
f 169/85/129 132/162/129 186/160/129
f 190/163/130 187/164/130 144/165/130
f 190/163/131 188/166/131 189/167/131
f 187/164/132 69/168/132 185/159/132
f 188/166/133 69/168/133 189/167/133
f 131/157/134 69/168/134 130/169/134
f 132/162/134 69/168/134 186/160/134
f 142/170/135 191/171/135 144/165/135
f 192/172/136 143/173/136 145/174/136
f 195/175/137 142/170/137 140/176/137
f 196/177/138 143/173/138 194/178/138
f 197/179/139 140/176/139 139/180/139
f 198/181/140 141/182/140 196/177/140
f 71/183/141 139/180/141 138/184/141
f 71/183/142 139/180/142 198/181/142
f 144/165/143 70/185/143 190/163/143
f 145/174/144 70/185/144 192/172/144
f 191/171/145 208/186/145 70/185/145
f 192/172/146 208/186/146 207/187/146
f 71/183/147 200/188/147 197/179/147
f 201/189/148 71/183/148 198/181/148
f 197/179/149 202/190/149 195/175/149
f 203/191/150 198/181/150 196/177/150
f 202/190/151 193/192/151 195/175/151
f 203/191/152 194/178/152 205/193/152
f 193/192/153 206/194/153 191/171/153
f 207/187/154 194/178/154 192/172/154
f 204/195/155 200/188/155 199/196/155
f 205/193/156 201/189/156 203/191/156
f 199/196/157 206/194/157 204/195/157
f 207/187/158 199/196/158 205/193/158
f 139/180/159 164/89/159 177/145/159
f 165/92/160 139/180/160 177/145/160
f 140/176/161 211/197/161 164/89/161
f 212/198/162 141/182/162 165/92/162
f 144/165/163 211/197/163 142/170/163
f 145/174/164 212/198/164 214/199/164
f 187/164/165 213/200/165 144/165/165
f 188/166/166 214/199/166 167/161/166
f 209/201/167 166/158/167 81/83/167
f 210/202/168 167/161/168 214/199/168
f 215/203/169 213/200/169 209/201/169
f 216/204/170 214/199/170 212/198/170
f 79/87/171 211/197/171 215/203/171
f 212/198/172 80/91/172 216/204/172
f 130/169/173 222/205/173 131/157/173
f 130/169/174 223/206/174 72/207/174
f 133/155/175 222/205/175 220/208/175
f 223/206/176 134/156/176 221/209/176
f 135/153/177 220/208/177 218/210/177
f 221/209/178 136/154/178 219/211/178
f 137/212/134 218/210/134 217/213/134
f 219/211/134 137/212/134 217/213/134
f 218/210/179 231/214/179 217/213/179
f 219/211/180 231/214/180 230/215/180
f 218/210/181 227/216/181 229/217/181
f 228/218/182 219/211/182 230/215/182
f 220/208/141 225/219/141 227/216/141
f 226/220/183 221/209/183 228/218/183
f 72/207/184 225/219/184 222/205/184
f 72/207/185 226/220/185 224/221/185
f 224/221/186 229/217/186 225/219/186
f 230/215/187 224/221/187 226/220/187
f 225/219/188 229/217/188 227/216/188
f 228/218/189 230/215/189 226/220/189
f 183/149/190 234/222/190 232/223/190
f 235/224/191 184/150/191 233/225/191
f 112/146/192 232/223/192 254/226/192
f 233/225/193 113/147/193 255/227/193
f 112/146/194 256/228/194 110/127/194
f 113/147/195 257/229/195 255/227/195
f 114/142/196 234/222/196 181/151/196
f 115/143/197 235/224/197 253/230/197
f 114/142/198 250/231/198 252/232/198
f 251/233/199 115/143/199 253/230/199
f 116/140/200 248/234/200 250/231/200
f 249/235/201 117/144/201 251/233/201
f 118/138/202 246/236/202 248/234/202
f 247/237/203 119/141/203 249/235/203
f 120/136/204 244/238/204 246/236/204
f 245/239/205 121/139/205 247/237/205
f 124/132/206 244/238/206 122/134/206
f 125/135/207 245/239/207 243/240/207
f 126/130/208 242/241/208 124/132/208
f 127/133/209 243/240/209 241/242/209
f 126/130/210 236/243/210 240/244/210
f 237/245/211 127/133/211 241/242/211
f 179/129/212 238/246/212 236/243/212
f 239/247/213 180/131/213 237/245/213
f 128/126/214 256/228/214 238/246/214
f 257/229/215 129/128/215 239/247/215
f 238/246/216 258/248/216 276/249/216
f 259/250/217 239/247/217 277/251/217
f 236/243/218 276/249/218 278/252/218
f 277/251/219 237/245/219 279/253/219
f 236/243/220 274/254/220 240/244/220
f 237/245/221 275/255/221 279/253/221
f 240/244/222 272/256/222 242/241/222
f 241/242/223 273/257/223 275/255/223
f 244/238/224 272/256/224 270/258/224
f 273/257/225 245/239/225 271/259/225
f 244/238/226 268/260/226 246/236/226
f 245/239/227 269/261/227 271/259/227
f 248/234/228 268/260/228 266/262/228
f 269/261/229 249/235/229 267/263/229
f 248/234/230 264/264/230 250/231/230
f 249/235/231 265/265/231 267/263/231
f 250/231/232 262/266/232 252/232/232
f 251/233/233 263/267/233 265/265/233
f 234/222/234 262/266/234 280/268/234
f 263/267/235 235/224/235 281/269/235
f 256/228/236 260/270/236 258/248/236
f 261/271/237 257/229/237 259/250/237
f 254/226/238 282/272/238 260/270/238
f 283/273/239 255/227/239 261/271/239
f 232/223/240 280/268/240 282/272/240
f 281/269/241 233/225/241 283/273/241
f 67/123/242 284/274/242 73/275/242
f 285/276/243 67/123/243 73/275/243
f 108/119/244 286/277/244 284/274/244
f 287/278/245 109/121/245 285/276/245
f 104/116/246 286/277/246 106/115/246
f 105/279/247 287/278/247 289/280/247
f 102/108/248 288/281/248 104/116/248
f 103/110/249 289/280/249 291/282/249
f 100/104/250 290/283/250 102/108/250
f 101/106/251 291/282/251 293/284/251
f 100/104/252 294/285/252 292/286/252
f 295/287/253 101/106/253 293/284/253
f 96/101/254 294/285/254 98/100/254
f 97/288/255 295/287/255 297/289/255
f 96/101/256 298/290/256 296/291/256
f 299/292/257 97/288/257 297/289/257
f 94/93/258 300/293/258 298/290/258
f 301/294/259 95/95/259 299/292/259
f 309/295/260 338/296/260 308/297/260
f 309/298/261 339/299/261 329/300/261
f 308/297/262 336/301/262 307/302/262
f 308/303/263 337/304/263 339/299/263
f 307/302/264 340/305/264 306/306/264
f 307/307/265 341/308/265 337/304/265
f 89/69/266 306/306/266 340/305/266
f 306/306/267 90/75/267 341/308/267
f 87/73/268 340/305/268 334/309/268
f 341/308/269 88/78/269 335/310/269
f 85/76/270 334/309/270 330/311/270
f 335/310/271 86/77/271 331/312/271
f 83/79/272 330/311/272 332/313/272
f 331/312/273 84/82/273 333/314/273
f 330/311/274 338/296/274 332/313/274
f 339/299/275 331/312/275 333/314/275
f 334/309/276 336/301/276 330/311/276
f 335/310/277 337/304/277 341/308/277
f 332/313/278 328/315/278 326/316/278
f 333/314/279 329/300/279 339/299/279
f 81/83/280 332/313/280 326/316/280
f 333/314/281 82/86/281 327/317/281
f 342/318/282 215/203/282 209/201/282
f 343/319/283 216/204/283 345/320/283
f 326/316/284 209/201/284 81/83/284
f 327/317/285 210/202/285 343/319/285
f 215/203/286 346/321/286 79/87/286
f 216/204/287 347/322/287 345/320/287
f 346/321/288 92/94/288 79/87/288
f 347/322/289 93/323/289 301/294/289
f 324/324/290 304/325/290 77/326/290
f 325/327/291 304/328/291 353/329/291
f 352/330/292 78/331/292 304/325/292
f 353/329/293 78/332/293 351/333/293
f 78/331/294 348/334/294 305/335/294
f 349/336/295 78/332/295 305/337/295
f 305/335/296 328/315/296 309/295/296
f 329/300/297 305/337/297 309/298/297
f 328/315/298 342/318/298 326/316/298
f 329/300/299 343/319/299 349/336/299
f 296/291/300 318/338/300 310/339/300
f 319/340/301 297/289/301 311/341/301
f 316/342/302 77/326/302 76/343/302
f 317/344/303 77/345/303 325/327/303
f 358/346/304 303/347/304 302/348/304
f 359/349/305 303/350/305 357/351/305
f 303/347/306 354/352/306 75/353/306
f 355/354/307 303/350/307 75/355/307
f 75/353/308 316/342/308 76/343/308
f 317/344/309 75/355/309 76/356/309
f 292/357/310 362/358/310 364/359/310
f 363/360/311 293/361/311 365/362/311
f 364/359/312 368/363/312 366/364/312
f 369/365/313 365/362/313 367/366/313
f 366/364/314 370/367/314 372/368/314
f 371/369/315 367/366/315 373/370/315
f 372/368/316 376/371/316 374/372/316
f 377/373/317 373/370/317 375/374/317
f 378/375/318 376/371/318 314/376/318
f 379/377/319 377/373/319 375/374/319
f 316/342/320 374/372/320 378/375/320
f 375/374/321 317/344/321 379/377/321
f 354/352/322 372/368/322 374/372/322
f 373/370/323 355/354/323 375/374/323
f 356/378/324 366/364/324 372/368/324
f 367/366/325 357/351/325 373/370/325
f 358/346/326 364/359/326 366/364/326
f 365/362/327 359/349/327 367/366/327
f 292/357/328 360/379/328 290/380/328
f 293/361/329 361/381/329 365/362/329
f 360/379/330 302/348/330 74/382/330
f 361/381/331 302/383/331 359/349/331
f 286/384/332 290/380/332 284/385/332
f 287/386/333 291/387/333 289/388/333
f 284/385/334 360/379/334 74/382/334
f 361/381/335 285/389/335 74/390/335
f 73/391/336 284/385/336 74/382/336
f 74/390/337 285/389/337 73/392/337
f 296/291/338 362/358/338 294/285/338
f 297/289/339 363/360/339 311/341/339
f 310/339/340 368/363/340 362/358/340
f 369/365/341 311/341/341 363/360/341
f 312/393/342 370/367/342 368/363/342
f 371/369/343 313/394/343 369/365/343
f 376/371/344 382/395/344 314/376/344
f 377/373/345 383/396/345 371/369/345
f 350/397/346 384/398/346 348/334/346
f 351/333/347 385/399/347 387/400/347
f 384/398/348 320/401/348 318/338/348
f 385/399/349 321/402/349 387/400/349
f 298/290/350 384/398/350 318/338/350
f 385/399/351 299/292/351 319/340/351
f 300/293/352 342/318/352 384/398/352
f 343/319/353 301/294/353 385/399/353
f 342/318/354 348/334/354 384/398/354
f 385/399/355 349/336/355 343/319/355
f 300/293/356 346/321/356 344/403/356
f 345/320/357 347/322/357 301/294/357
f 322/404/358 378/375/358 314/376/358
f 323/405/359 379/377/359 381/406/359
f 378/375/360 324/324/360 316/342/360
f 379/377/361 325/327/361 381/406/361
f 386/407/362 322/404/362 320/401/362
f 387/400/363 323/405/363 381/406/363
f 352/330/364 386/407/364 350/397/364
f 353/329/365 387/400/365 381/406/365
f 324/324/366 380/408/366 352/330/366
f 353/329/367 381/406/367 325/327/367
f 388/409/368 402/410/368 400/411/368
f 389/412/369 403/413/369 415/414/369
f 400/411/370 404/415/370 398/416/370
f 405/417/371 401/418/371 399/419/371
f 404/415/372 396/420/372 398/416/372
f 405/417/373 397/421/373 407/422/373
f 406/423/374 394/424/374 396/420/374
f 407/422/375 395/425/375 409/426/375
f 408/427/376 392/428/376 394/424/376
f 409/426/377 393/429/377 411/430/377
f 392/428/378 412/431/378 390/432/378
f 413/433/379 393/429/379 391/434/379
f 410/435/380 418/436/380 412/431/380
f 419/437/381 411/430/381 413/433/381
f 408/427/382 420/438/382 410/435/382
f 421/439/383 409/426/383 411/430/383
f 424/440/384 408/427/384 406/423/384
f 425/441/385 409/426/385 423/442/385
f 426/443/386 406/423/386 404/415/386
f 427/444/387 407/422/387 425/441/387
f 428/445/388 404/415/388 402/410/388
f 429/446/389 405/417/389 427/444/389
f 402/410/390 416/447/390 428/445/390
f 417/448/391 403/413/391 429/446/391
f 320/401/392 442/449/392 318/338/392
f 321/402/393 443/450/393 445/451/393
f 390/432/394 444/452/394 320/453/394
f 391/434/395 445/454/395 413/433/395
f 310/339/396 442/449/396 312/393/396
f 443/450/397 311/341/397 313/394/397
f 382/455/398 414/456/398 388/409/398
f 415/414/399 383/457/399 389/412/399
f 412/431/400 440/458/400 444/452/400
f 441/459/401 413/433/401 445/454/401
f 446/460/402 440/458/402 438/461/402
f 447/462/403 441/459/403 445/454/403
f 434/463/134 438/461/134 436/464/134
f 439/465/134 435/466/134 437/467/134
f 448/468/404 434/463/404 432/469/404
f 449/470/405 435/466/405 447/462/405
f 448/468/406 450/471/406 430/472/406
f 449/470/407 451/473/407 433/474/407
f 430/472/408 416/447/408 414/456/408
f 431/475/409 417/448/409 451/473/409
f 448/476/410 382/395/410 312/393/410
f 449/477/411 383/396/411 431/478/411
f 442/449/412 448/476/412 312/393/412
f 443/450/413 449/477/413 447/479/413
f 442/449/414 444/480/414 446/481/414
f 447/479/415 445/451/415 443/450/415
f 416/447/416 452/482/416 476/483/416
f 453/484/417 417/448/417 477/485/417
f 432/469/418 452/482/418 450/471/418
f 433/474/419 453/484/419 463/486/419
f 432/469/420 460/487/420 462/488/420
f 461/489/421 433/474/421 463/486/421
f 436/464/422 460/487/422 434/463/422
f 437/467/423 461/489/423 459/490/423
f 438/461/424 458/491/424 436/464/424
f 439/465/425 459/490/425 457/492/425
f 438/461/426 454/493/426 456/494/426
f 455/495/427 439/465/427 457/492/427
f 440/458/428 474/496/428 454/493/428
f 475/497/428 441/459/428 455/495/428
f 428/445/429 476/483/429 464/498/429
f 477/485/430 429/446/430 465/499/430
f 426/443/431 464/498/431 466/500/431
f 465/499/432 427/444/432 467/501/432
f 424/440/433 466/500/433 468/502/433
f 467/501/434 425/441/434 469/503/434
f 424/440/435 470/504/435 422/505/435
f 425/441/436 471/506/436 469/503/436
f 422/505/437 472/507/437 420/438/437
f 423/442/438 473/508/438 471/506/438
f 420/438/439 474/496/439 418/436/439
f 421/439/440 475/497/440 473/508/440
f 456/494/441 478/509/441 458/491/441
f 457/492/442 479/510/442 481/511/442
f 480/512/443 484/513/443 478/509/443
f 481/511/444 485/514/444 483/515/444
f 484/513/445 488/516/445 486/517/445
f 489/518/446 485/514/446 487/519/446
f 488/516/447 492/520/447 486/517/447
f 489/518/448 493/521/448 491/522/448
f 464/498/449 486/517/449 492/520/449
f 487/519/450 465/499/450 493/521/450
f 484/513/451 476/483/451 452/482/451
f 485/514/452 477/485/452 487/519/452
f 462/488/453 484/513/453 452/482/453
f 463/486/454 485/514/454 479/510/454
f 458/491/134 462/488/134 460/487/134
f 463/486/134 459/490/134 461/489/134
f 474/496/455 456/494/455 454/493/455
f 475/497/456 457/492/456 481/511/456
f 472/507/457 480/512/457 474/496/457
f 481/511/458 473/508/458 475/497/458
f 488/516/459 472/507/459 470/504/459
f 489/518/460 473/508/460 483/515/460
f 490/523/461 470/504/461 468/502/461
f 491/522/462 471/506/462 489/518/462
f 466/500/463 490/523/463 468/502/463
f 491/522/464 467/501/464 469/503/464
f 464/498/465 492/520/465 466/500/465
f 467/501/466 493/521/466 465/499/466
f 392/428/467 504/524/467 502/525/467
f 505/526/468 393/429/468 503/527/468
f 394/424/469 502/525/469 500/528/469
f 503/527/470 395/425/470 501/529/470
f 394/424/471 498/530/471 396/420/471
f 395/425/472 499/531/472 501/529/472
f 396/420/473 496/532/473 398/533/473
f 397/421/474 497/534/474 499/531/474
f 398/533/475 494/535/475 400/536/475
f 399/537/476 495/538/476 497/534/476
f 400/536/477 506/539/477 388/540/477
f 401/541/478 507/542/478 495/538/478
f 502/525/479 506/539/479 494/535/479
f 503/527/480 507/542/480 505/526/480
f 494/535/481 500/528/481 502/525/481
f 501/529/482 495/538/482 503/527/482
f 496/532/483 498/530/483 500/528/483
f 501/529/484 499/531/484 497/534/484
f 382/543/485 506/539/485 314/544/485
f 383/545/486 507/542/486 389/546/486
f 314/544/487 504/524/487 322/547/487
f 505/526/488 315/548/488 323/549/488
f 320/453/489 504/524/489 390/432/489
f 505/526/490 321/550/490 391/434/490
f 47/1/491 1/13/491 3/2/491
f 4/4/492 2/16/492 48/5/492
f 45/3/493 3/2/493 5/7/493
f 6/9/494 4/4/494 46/6/494
f 3/2/495 9/14/495 7/11/495
f 8/12/496 10/15/496 4/4/496
f 1/13/497 11/17/497 9/14/497
f 10/15/498 12/20/498 2/16/498
f 11/17/499 13/27/499 15/18/499
f 16/19/500 14/62/500 12/20/500
f 9/14/501 15/18/501 17/21/501
f 18/22/502 16/19/502 10/15/502
f 21/23/503 19/31/503 17/21/503
f 22/24/504 16/19/504 18/22/504
f 23/26/505 21/23/505 15/18/505
f 24/28/506 14/62/506 16/19/506
f 23/26/507 25/38/507 27/29/507
f 28/30/508 26/53/508 24/28/508
f 27/29/509 29/34/509 19/31/509
f 28/30/510 22/24/510 20/25/510
f 33/33/511 31/44/511 29/34/511
f 34/35/512 28/30/512 30/32/512
f 35/37/513 33/33/513 27/29/513
f 36/39/514 26/53/514 28/30/514
f 37/40/515 39/43/515 33/33/515
f 38/41/516 36/39/516 34/35/516
f 39/43/517 41/46/517 31/44/517
f 40/42/518 34/35/518 32/36/518
f 45/3/519 43/8/519 41/46/519
f 46/6/520 40/42/520 42/45/520
f 47/1/521 45/3/521 39/43/521
f 48/5/522 38/41/522 40/42/522
f 37/40/523 51/50/523 49/47/523
f 38/41/524 48/5/524 50/48/524
f 35/37/525 53/52/525 51/50/525
f 36/39/526 38/41/526 52/49/526
f 25/38/527 55/55/527 53/52/527
f 26/53/528 36/39/528 54/51/528
f 23/26/529 57/58/529 55/55/529
f 24/28/530 26/53/530 56/54/530
f 23/26/531 13/27/531 59/57/531
f 60/59/532 14/62/532 24/28/532
f 13/27/533 11/17/533 63/60/533
f 64/61/534 12/20/534 14/62/534
f 11/17/535 1/13/535 65/63/535
f 66/64/536 2/16/536 12/20/536
f 1/13/537 47/1/537 49/47/537
f 50/48/538 48/5/538 2/16/538
f 174/67/539 176/71/539 91/68/539
f 175/70/540 90/75/540 91/68/540
f 172/72/541 174/67/541 89/69/541
f 173/74/542 88/78/542 90/75/542
f 85/76/543 170/80/543 172/72/543
f 173/74/544 171/81/544 86/77/544
f 83/79/545 168/84/545 170/80/545
f 171/81/546 169/85/546 84/82/546
f 81/83/547 166/158/547 168/84/547
f 169/85/548 167/161/548 82/86/548
f 79/87/549 92/94/549 146/88/549
f 147/90/550 93/323/550 80/91/550
f 94/93/551 148/98/551 146/88/551
f 95/95/552 93/323/552 147/90/552
f 94/93/553 96/101/553 150/97/553
f 151/99/554 97/288/554 95/95/554
f 98/100/555 152/105/555 150/97/555
f 99/102/556 97/288/556 151/99/556
f 100/104/557 154/109/557 152/105/557
f 101/106/558 99/102/558 153/103/558
f 102/108/559 156/113/559 154/109/559
f 103/110/560 101/106/560 155/107/560
f 102/108/561 104/116/561 158/112/561
f 159/114/562 105/279/562 103/110/562
f 106/115/563 160/120/563 158/112/563
f 107/117/564 105/279/564 159/114/564
f 108/119/565 162/124/565 160/120/565
f 109/121/566 107/117/566 161/118/566
f 67/123/567 68/125/567 162/124/567
f 67/123/568 109/121/568 163/122/568
f 128/126/569 160/120/569 162/124/569
f 129/128/570 111/551/570 163/122/570
f 128/126/571 179/129/571 158/112/571
f 159/114/572 180/131/572 129/128/572
f 156/113/573 158/112/573 179/129/573
f 157/111/574 127/133/574 180/131/574
f 154/109/575 156/113/575 126/130/575
f 155/107/576 125/135/576 127/133/576
f 152/105/577 154/109/577 124/132/577
f 153/103/578 123/137/578 125/135/578
f 150/97/579 152/105/579 122/134/579
f 151/99/580 121/139/580 123/137/580
f 148/98/581 150/97/581 120/136/581
f 149/96/582 119/141/582 121/139/582
f 146/88/583 148/98/583 118/138/583
f 147/90/584 117/144/584 119/141/584
f 114/142/585 164/89/585 146/88/585
f 147/90/586 165/92/586 115/143/586
f 114/142/587 181/151/587 177/145/587
f 177/145/588 182/152/588 115/143/588
f 162/124/589 68/125/589 112/146/589
f 163/122/590 111/551/590 113/147/590
f 112/146/591 68/125/591 178/148/591
f 178/148/592 68/125/592 113/147/592
f 181/151/593 183/149/593 178/148/593
f 182/152/594 177/145/594 178/148/594
f 135/153/595 137/212/595 176/71/595
f 176/71/596 137/212/596 136/154/596
f 133/155/597 135/153/597 174/67/597
f 175/70/598 136/154/598 134/156/598
f 133/155/599 172/72/599 170/80/599
f 134/156/600 132/162/600 171/81/600
f 166/158/601 187/164/601 185/159/601
f 186/160/602 188/166/602 167/161/602
f 131/157/603 170/80/603 168/84/603
f 169/85/604 171/81/604 132/162/604
f 190/163/131 189/167/131 187/164/131
f 190/163/605 145/174/605 188/166/605
f 187/164/133 189/167/133 69/168/133
f 188/166/606 186/160/606 69/168/606
f 131/157/134 185/159/134 69/168/134
f 132/162/134 130/169/134 69/168/134
f 142/170/607 193/192/607 191/171/607
f 192/172/608 194/178/608 143/173/608
f 195/175/609 193/192/609 142/170/609
f 196/177/610 141/182/610 143/173/610
f 197/179/611 195/175/611 140/176/611
f 198/181/612 139/180/612 141/182/612
f 71/183/613 197/179/613 139/180/613
f 144/165/614 191/171/614 70/185/614
f 145/174/615 190/163/615 70/185/615
f 191/171/145 206/194/145 208/186/145
f 192/172/146 70/185/146 208/186/146
f 71/183/616 199/196/616 200/188/616
f 201/189/617 199/196/617 71/183/617
f 197/179/618 200/188/618 202/190/618
f 203/191/619 201/189/619 198/181/619
f 202/190/620 204/195/620 193/192/620
f 203/191/621 196/177/621 194/178/621
f 193/192/622 204/195/622 206/194/622
f 207/187/623 205/193/623 194/178/623
f 204/195/624 202/190/624 200/188/624
f 205/193/625 199/196/625 201/189/625
f 199/196/626 208/186/626 206/194/626
f 207/187/627 208/186/627 199/196/627
f 139/180/628 140/176/628 164/89/628
f 165/92/629 141/182/629 139/180/629
f 140/176/630 142/170/630 211/197/630
f 212/198/631 143/173/631 141/182/631
f 144/165/632 213/200/632 211/197/632
f 145/174/633 143/173/633 212/198/633
f 187/164/634 166/158/634 213/200/634
f 188/166/635 145/174/635 214/199/635
f 209/201/636 213/200/636 166/158/636
f 210/202/637 82/86/637 167/161/637
f 215/203/638 211/197/638 213/200/638
f 216/204/639 210/202/639 214/199/639
f 79/87/640 164/89/640 211/197/640
f 212/198/641 165/92/641 80/91/641
f 130/169/642 72/207/642 222/205/642
f 130/169/643 132/162/643 223/206/643
f 133/155/644 131/157/644 222/205/644
f 223/206/645 132/162/645 134/156/645
f 135/153/646 133/155/646 220/208/646
f 221/209/647 134/156/647 136/154/647
f 137/212/648 135/153/648 218/210/648
f 219/211/649 136/154/649 137/212/649
f 218/210/179 229/217/179 231/214/179
f 219/211/180 217/213/180 231/214/180
f 218/210/650 220/208/650 227/216/650
f 228/218/651 221/209/651 219/211/651
f 220/208/141 222/205/141 225/219/141
f 226/220/183 223/206/183 221/209/183
f 72/207/184 224/221/184 225/219/184
f 72/207/185 223/206/185 226/220/185
f 224/221/652 231/214/652 229/217/652
f 230/215/653 231/214/653 224/221/653
f 183/149/654 181/151/654 234/222/654
f 235/224/655 182/152/655 184/150/655
f 112/146/656 183/149/656 232/223/656
f 233/225/657 184/150/657 113/147/657
f 112/146/658 254/226/658 256/228/658
f 113/147/659 111/551/659 257/229/659
f 114/142/660 252/232/660 234/222/660
f 115/143/661 182/152/661 235/224/661
f 114/142/662 116/140/662 250/231/662
f 251/233/663 117/144/663 115/143/663
f 116/140/664 118/138/664 248/234/664
f 249/235/665 119/141/665 117/144/665
f 118/138/666 120/136/666 246/236/666
f 247/237/667 121/139/667 119/141/667
f 120/136/668 122/134/668 244/238/668
f 245/239/669 123/137/669 121/139/669
f 124/132/670 242/241/670 244/238/670
f 125/135/671 123/137/671 245/239/671
f 126/130/672 240/244/672 242/241/672
f 127/133/673 125/135/673 243/240/673
f 126/130/674 179/129/674 236/243/674
f 237/245/675 180/131/675 127/133/675
f 179/129/676 128/126/676 238/246/676
f 239/247/677 129/128/677 180/131/677
f 128/126/678 110/127/678 256/228/678
f 257/229/679 111/551/679 129/128/679
f 238/246/680 256/228/680 258/248/680
f 259/250/681 257/229/681 239/247/681
f 236/243/682 238/246/682 276/249/682
f 277/251/683 239/247/683 237/245/683
f 236/243/684 278/252/684 274/254/684
f 237/245/685 241/242/685 275/255/685
f 240/244/686 274/254/686 272/256/686
f 241/242/687 243/240/687 273/257/687
f 244/238/688 242/241/688 272/256/688
f 273/257/689 243/240/689 245/239/689
f 244/238/690 270/258/690 268/260/690
f 245/239/691 247/237/691 269/261/691
f 248/234/692 246/236/692 268/260/692
f 269/261/693 247/237/693 249/235/693
f 248/234/694 266/262/694 264/264/694
f 249/235/695 251/233/695 265/265/695
f 250/231/696 264/264/696 262/266/696
f 251/233/697 253/230/697 263/267/697
f 234/222/698 252/232/698 262/266/698
f 263/267/235 253/230/235 235/224/235
f 256/228/699 254/226/699 260/270/699
f 261/271/700 255/227/700 257/229/700
f 254/226/701 232/223/701 282/272/701
f 283/273/702 233/225/702 255/227/702
f 232/223/703 234/222/703 280/268/703
f 281/269/704 235/224/704 233/225/704
f 67/123/705 108/119/705 284/274/705
f 285/276/706 109/121/706 67/123/706
f 108/119/707 106/115/707 286/277/707
f 287/278/708 107/117/708 109/121/708
f 104/116/709 288/281/709 286/277/709
f 105/279/710 107/117/710 287/278/710
f 102/108/711 290/283/711 288/281/711
f 103/110/712 105/279/712 289/280/712
f 100/104/713 292/286/713 290/283/713
f 101/106/714 103/110/714 291/282/714
f 100/104/715 98/100/715 294/285/715
f 295/287/716 99/102/716 101/106/716
f 96/101/717 296/291/717 294/285/717
f 97/288/718 99/102/718 295/287/718
f 96/101/719 94/93/719 298/290/719
f 299/292/720 95/95/720 97/288/720
f 94/93/721 92/94/721 300/293/721
f 301/294/722 93/323/722 95/95/722
f 309/295/723 328/315/723 338/296/723
f 309/298/724 308/303/724 339/299/724
f 308/297/725 338/296/725 336/301/725
f 308/303/726 307/307/726 337/304/726
f 307/302/727 336/301/727 340/305/727
f 307/307/728 306/306/728 341/308/728
f 89/69/729 91/68/729 306/306/729
f 306/306/730 91/68/730 90/75/730
f 87/73/731 89/69/731 340/305/731
f 341/308/732 90/75/732 88/78/732
f 85/76/733 87/73/733 334/309/733
f 335/310/734 88/78/734 86/77/734
f 83/79/735 85/76/735 330/311/735
f 331/312/736 86/77/736 84/82/736
f 330/311/737 336/301/737 338/296/737
f 339/299/738 337/304/738 331/312/738
f 334/309/739 340/305/739 336/301/739
f 335/310/740 331/312/740 337/304/740
f 332/313/741 338/296/741 328/315/741
f 333/314/742 327/317/742 329/300/742
f 81/83/743 83/79/743 332/313/743
f 333/314/744 84/82/744 82/86/744
f 342/318/745 344/403/745 215/203/745
f 343/319/746 210/202/746 216/204/746
f 326/316/747 342/318/747 209/201/747
f 327/317/748 82/86/748 210/202/748
f 215/203/749 344/403/749 346/321/749
f 216/204/750 80/91/750 347/322/750
f 346/321/751 300/293/751 92/94/751
f 347/322/752 80/91/752 93/323/752
f 324/324/753 352/330/753 304/325/753
f 325/327/754 77/345/754 304/328/754
f 352/330/755 350/397/755 78/331/755
f 353/329/756 304/328/756 78/332/756
f 78/331/757 350/397/757 348/334/757
f 349/336/758 351/333/758 78/332/758
f 305/335/759 348/334/759 328/315/759
f 329/300/760 349/336/760 305/337/760
f 328/315/761 348/334/761 342/318/761
f 329/300/762 327/317/762 343/319/762
f 296/291/763 298/290/763 318/338/763
f 319/340/764 299/292/764 297/289/764
f 316/342/765 324/324/765 77/326/765
f 317/344/766 76/356/766 77/345/766
f 358/346/767 356/378/767 303/347/767
f 359/349/768 302/383/768 303/350/768
f 303/347/769 356/378/769 354/352/769
f 355/354/770 357/351/770 303/350/770
f 75/353/771 354/352/771 316/342/771
f 317/344/772 355/354/772 75/355/772
f 292/357/773 294/285/773 362/358/773
f 363/360/774 295/287/774 293/361/774
f 364/359/775 362/358/775 368/363/775
f 369/365/776 363/360/776 365/362/776
f 366/364/777 368/363/777 370/367/777
f 371/369/778 369/365/778 367/366/778
f 372/368/779 370/367/779 376/371/779
f 377/373/780 371/369/780 373/370/780
f 378/375/781 374/372/781 376/371/781
f 379/377/782 315/552/782 377/373/782
f 316/342/783 354/352/783 374/372/783
f 375/374/784 355/354/784 317/344/784
f 354/352/785 356/378/785 372/368/785
f 373/370/786 357/351/786 355/354/786
f 356/378/787 358/346/787 366/364/787
f 367/366/788 359/349/788 357/351/788
f 358/346/789 360/379/789 364/359/789
f 365/362/790 361/381/790 359/349/790
f 292/357/791 364/359/791 360/379/791
f 293/361/792 291/387/792 361/381/792
f 360/379/793 358/346/793 302/348/793
f 361/381/794 74/390/794 302/383/794
f 286/384/795 288/553/795 290/380/795
f 287/386/796 285/389/796 291/387/796
f 284/385/797 290/380/797 360/379/797
f 361/381/798 291/387/798 285/389/798
f 296/291/799 310/339/799 362/358/799
f 297/289/800 295/287/800 363/360/800
f 310/339/801 312/393/801 368/363/801
f 369/365/802 313/394/802 311/341/802
f 312/393/803 382/395/803 370/367/803
f 371/369/804 383/396/804 313/394/804
f 376/371/805 370/367/805 382/395/805
f 377/373/806 315/552/806 383/396/806
f 350/397/807 386/407/807 384/398/807
f 351/333/808 349/336/808 385/399/808
f 384/398/809 386/407/809 320/401/809
f 385/399/810 319/340/810 321/402/810
f 298/290/811 300/293/811 384/398/811
f 385/399/812 301/294/812 299/292/812
f 300/293/813 344/403/813 342/318/813
f 343/319/814 345/320/814 301/294/814
f 322/404/815 380/408/815 378/375/815
f 323/405/816 315/552/816 379/377/816
f 378/375/817 380/408/817 324/324/817
f 379/377/818 317/344/818 325/327/818
f 386/407/819 380/408/819 322/404/819
f 387/400/820 321/402/820 323/405/820
f 352/330/821 380/408/821 386/407/821
f 353/329/822 351/333/822 387/400/822
f 388/409/823 414/456/823 402/410/823
f 389/412/824 401/418/824 403/413/824
f 400/411/825 402/410/825 404/415/825
f 405/417/826 403/413/826 401/418/826
f 404/415/827 406/423/827 396/420/827
f 405/417/828 399/419/828 397/421/828
f 406/423/829 408/427/829 394/424/829
f 407/422/830 397/421/830 395/425/830
f 408/427/831 410/435/831 392/428/831
f 409/426/832 395/425/832 393/429/832
f 392/428/833 410/435/833 412/431/833
f 413/433/834 411/430/834 393/429/834
f 410/435/835 420/438/835 418/436/835
f 419/437/836 421/439/836 411/430/836
f 408/427/837 422/505/837 420/438/837
f 421/439/838 423/442/838 409/426/838
f 424/440/839 422/505/839 408/427/839
f 425/441/840 407/422/840 409/426/840
f 426/443/841 424/440/841 406/423/841
f 427/444/842 405/417/842 407/422/842
f 428/445/843 426/443/843 404/415/843
f 429/446/844 403/413/844 405/417/844
f 402/410/845 414/456/845 416/447/845
f 417/448/846 415/414/846 403/413/846
f 320/401/847 444/480/847 442/449/847
f 321/402/848 319/340/848 443/450/848
f 390/432/849 412/431/849 444/452/849
f 391/434/850 321/550/850 445/454/850
f 310/339/851 318/338/851 442/449/851
f 443/450/852 319/340/852 311/341/852
f 382/455/853 430/472/853 414/456/853
f 415/414/854 431/475/854 383/457/854
f 412/431/855 418/436/855 440/458/855
f 441/459/856 419/437/856 413/433/856
f 446/460/857 444/452/857 440/458/857
f 447/462/858 439/465/858 441/459/858
f 434/463/859 446/460/859 438/461/859
f 439/465/860 447/462/860 435/466/860
f 448/468/861 446/460/861 434/463/861
f 449/470/862 433/474/862 435/466/862
f 448/468/863 432/469/863 450/471/863
f 449/470/864 431/475/864 451/473/864
f 430/472/865 450/471/865 416/447/865
f 431/475/866 415/414/866 417/448/866
f 448/476/867 430/554/867 382/395/867
f 449/477/868 313/394/868 383/396/868
f 442/449/869 446/481/869 448/476/869
f 443/450/870 313/394/870 449/477/870
f 416/447/871 450/471/871 452/482/871
f 453/484/872 451/473/872 417/448/872
f 432/469/873 462/488/873 452/482/873
f 433/474/874 451/473/874 453/484/874
f 432/469/875 434/463/875 460/487/875
f 461/489/421 435/466/421 433/474/421
f 436/464/876 458/491/876 460/487/876
f 437/467/877 435/466/877 461/489/877
f 438/461/878 456/494/878 458/491/878
f 439/465/879 437/467/879 459/490/879
f 438/461/880 440/458/880 454/493/880
f 455/495/881 441/459/881 439/465/881
f 440/458/882 418/436/882 474/496/882
f 475/497/883 419/437/883 441/459/883
f 428/445/884 416/447/884 476/483/884
f 477/485/885 417/448/885 429/446/885
f 426/443/886 428/445/886 464/498/886
f 465/499/887 429/446/887 427/444/887
f 424/440/888 426/443/888 466/500/888
f 467/501/889 427/444/889 425/441/889
f 424/440/890 468/502/890 470/504/890
f 425/441/891 423/442/891 471/506/891
f 422/505/892 470/504/892 472/507/892
f 423/442/893 421/439/893 473/508/893
f 420/438/894 472/507/894 474/496/894
f 421/439/895 419/437/895 475/497/895
f 456/494/896 480/512/896 478/509/896
f 457/492/897 459/490/897 479/510/897
f 480/512/898 482/555/898 484/513/898
f 481/511/899 479/510/899 485/514/899
f 484/513/900 482/555/900 488/516/900
f 489/518/901 483/515/901 485/514/901
f 488/516/902 490/523/902 492/520/902
f 489/518/903 487/519/903 493/521/903
f 464/498/904 476/483/904 486/517/904
f 487/519/905 477/485/905 465/499/905
f 484/513/906 486/517/906 476/483/906
f 485/514/907 453/484/907 477/485/907
f 462/488/908 478/509/908 484/513/908
f 463/486/909 453/484/909 485/514/909
f 458/491/910 478/509/910 462/488/910
f 463/486/911 479/510/911 459/490/911
f 474/496/912 480/512/912 456/494/912
f 475/497/913 455/495/913 457/492/913
f 472/507/914 482/555/914 480/512/914
f 481/511/915 483/515/915 473/508/915
f 488/516/916 482/555/916 472/507/916
f 489/518/917 471/506/917 473/508/917
f 490/523/918 488/516/918 470/504/918
f 491/522/919 469/503/919 471/506/919
f 466/500/920 492/520/920 490/523/920
f 491/522/921 493/521/921 467/501/921
f 392/428/922 390/432/922 504/524/922
f 505/526/923 391/434/923 393/429/923
f 394/424/924 392/428/924 502/525/924
f 503/527/925 393/429/925 395/425/925
f 394/424/926 500/528/926 498/530/926
f 395/425/927 397/421/927 499/531/927
f 396/420/928 498/530/928 496/532/928
f 397/421/929 399/537/929 497/534/929
f 398/533/930 496/532/930 494/535/930
f 399/537/931 401/541/931 495/538/931
f 400/536/932 494/535/932 506/539/932
f 401/541/933 389/546/933 507/542/933
f 502/525/934 504/524/934 506/539/934
f 503/527/935 495/538/935 507/542/935
f 494/535/936 496/532/936 500/528/936
f 501/529/937 497/534/937 495/538/937
f 382/543/938 388/540/938 506/539/938
f 383/545/939 315/548/939 507/542/939
f 314/544/940 506/539/940 504/524/940
f 505/526/941 507/542/941 315/548/941
f 320/453/942 322/547/942 504/524/942
f 505/526/943 323/549/943 321/550/943
